M48
;DRILL file {kicad (2014-08-26 BZR 5101)-product} date 28/08/2014 18:17:11
;FORMAT={-:-/ absolute / inch / decimal}
FMAT,2
INCH,TZ
T1C0.032
%
G90
G05
M72
T1
X4.6Y-3.225
X4.6Y-3.4
X4.6Y-3.55
X4.6Y-3.675
X4.6Y-3.825
X4.6Y-4.2
X4.6Y-4.3
X4.6Y-4.425
X4.6Y-4.725
X4.7Y-3.225
X4.72Y-3.95
X4.72Y-4.1
X4.725Y-4.525
X4.725Y-4.725
X4.8Y-3.225
X4.8Y-3.4
X4.825Y-4.475
X4.9Y-3.55
X4.9Y-3.675
X4.9Y-3.825
X4.925Y-4.025
X4.925Y-4.125
X4.925Y-4.225
X4.925Y-4.325
X4.925Y-4.675
X4.975Y-3.4
X5.05Y-3.225
X5.05Y-3.55
X5.05Y-3.675
X5.075Y-4.675
X5.125Y-4.475
X5.15Y-3.225
X5.2Y-4.475
X5.2Y-4.775
X5.225Y-4.025
X5.225Y-4.125
X5.225Y-4.225
X5.225Y-4.325
X5.25Y-3.225
X5.25Y-3.55
X5.25Y-3.675
X5.275Y-3.4
X5.275Y-4.475
X5.375Y-3.55
X5.375Y-3.675
X5.375Y-3.825
X5.4Y-4.075
X5.4Y-4.375
X5.4Y-4.6
X5.4Y-4.75
X5.475Y-3.225
X5.475Y-3.4
X5.525Y-4.2
X5.575Y-3.225
X5.575Y-4.475
X5.6Y-4.675
X5.6Y-4.775
X5.675Y-3.225
X5.675Y-3.4
X5.675Y-3.55
X5.675Y-3.675
X5.675Y-3.825
X5.675Y-4.2
X5.725Y-4.45
X5.725Y-4.55
T0
M30
