%FSLAX46Y46*%
G04 Gerber Fmt 4.6, Leading zero omitted, Abs format (unit mm)*
G04 Created by KiCad (PCBNEW (2014-09-19 BZR 5142)-product) date 28/09/2014 22:55:22*
%MOMM*%
G01*
G04 APERTURE LIST*
%ADD10C,0.100000*%
%ADD11C,0.222250*%
%ADD12C,0.300000*%
%ADD13C,0.304800*%
%ADD14C,0.127000*%
%ADD15C,0.381000*%
%ADD16C,0.203200*%
%ADD17C,0.190500*%
%ADD18C,0.271780*%
%ADD19C,0.269240*%
%ADD20C,0.285750*%
%ADD21C,1.778000*%
%ADD22R,1.778000X1.778000*%
%ADD23R,2.286000X1.778000*%
%ADD24O,2.286000X1.778000*%
G04 APERTURE END LIST*
D10*
D11*
X113432167Y-121094501D02*
X113432167Y-120544168D01*
X113770833Y-120840501D01*
X113770833Y-120713501D01*
X113813167Y-120628834D01*
X113855500Y-120586501D01*
X113940167Y-120544168D01*
X114151833Y-120544168D01*
X114236500Y-120586501D01*
X114278833Y-120628834D01*
X114321167Y-120713501D01*
X114321167Y-120967501D01*
X114278833Y-121052168D01*
X114236500Y-121094501D01*
X114278833Y-119824501D02*
X114321167Y-119909167D01*
X114321167Y-120078501D01*
X114278833Y-120163167D01*
X114194167Y-120205501D01*
X113855500Y-120205501D01*
X113770833Y-120163167D01*
X113728500Y-120078501D01*
X113728500Y-119909167D01*
X113770833Y-119824501D01*
X113855500Y-119782167D01*
X113940167Y-119782167D01*
X114024833Y-120205501D01*
X113728500Y-119020167D02*
X114617500Y-119020167D01*
X114278833Y-119020167D02*
X114321167Y-119104834D01*
X114321167Y-119274167D01*
X114278833Y-119358834D01*
X114236500Y-119401167D01*
X114151833Y-119443501D01*
X113897833Y-119443501D01*
X113813167Y-119401167D01*
X113770833Y-119358834D01*
X113728500Y-119274167D01*
X113728500Y-119104834D01*
X113770833Y-119020167D01*
X113982500Y-118596834D02*
X113982500Y-117919501D01*
X114321167Y-117030501D02*
X114321167Y-117538501D01*
X114321167Y-117284501D02*
X113432167Y-117284501D01*
X113559167Y-117369167D01*
X113643833Y-117453834D01*
X113686167Y-117538501D01*
X113432167Y-116480167D02*
X113432167Y-116395500D01*
X113474500Y-116310834D01*
X113516833Y-116268500D01*
X113601500Y-116226167D01*
X113770833Y-116183834D01*
X113982500Y-116183834D01*
X114151833Y-116226167D01*
X114236500Y-116268500D01*
X114278833Y-116310834D01*
X114321167Y-116395500D01*
X114321167Y-116480167D01*
X114278833Y-116564834D01*
X114236500Y-116607167D01*
X114151833Y-116649500D01*
X113982500Y-116691834D01*
X113770833Y-116691834D01*
X113601500Y-116649500D01*
X113516833Y-116607167D01*
X113474500Y-116564834D01*
X113432167Y-116480167D01*
X113432167Y-115633500D02*
X113432167Y-115548833D01*
X113474500Y-115464167D01*
X113516833Y-115421833D01*
X113601500Y-115379500D01*
X113770833Y-115337167D01*
X113982500Y-115337167D01*
X114151833Y-115379500D01*
X114236500Y-115421833D01*
X114278833Y-115464167D01*
X114321167Y-115548833D01*
X114321167Y-115633500D01*
X114278833Y-115718167D01*
X114236500Y-115760500D01*
X114151833Y-115802833D01*
X113982500Y-115845167D01*
X113770833Y-115845167D01*
X113601500Y-115802833D01*
X113516833Y-115760500D01*
X113474500Y-115718167D01*
X113432167Y-115633500D01*
X114321167Y-114956166D02*
X113432167Y-114956166D01*
X113982500Y-114871500D02*
X114321167Y-114617500D01*
X113728500Y-114617500D02*
X114067167Y-114956166D01*
X113982500Y-114236499D02*
X113982500Y-113559166D01*
X114321167Y-113135832D02*
X113432167Y-113135832D01*
X113770833Y-113135832D02*
X113728500Y-113051166D01*
X113728500Y-112881832D01*
X113770833Y-112797166D01*
X113813167Y-112754832D01*
X113897833Y-112712499D01*
X114151833Y-112712499D01*
X114236500Y-112754832D01*
X114278833Y-112797166D01*
X114321167Y-112881832D01*
X114321167Y-113051166D01*
X114278833Y-113135832D01*
X113982500Y-112331499D02*
X113982500Y-111654166D01*
X113728500Y-111315499D02*
X114321167Y-111103832D01*
X113728500Y-110892166D01*
X113516833Y-110595833D02*
X113474500Y-110553499D01*
X113432167Y-110468833D01*
X113432167Y-110257166D01*
X113474500Y-110172499D01*
X113516833Y-110130166D01*
X113601500Y-110087833D01*
X113686167Y-110087833D01*
X113813167Y-110130166D01*
X114321167Y-110638166D01*
X114321167Y-110087833D01*
X114321167Y-98975330D02*
X113432167Y-98975330D01*
X114278833Y-98975330D02*
X114321167Y-99059997D01*
X114321167Y-99229330D01*
X114278833Y-99313997D01*
X114236500Y-99356330D01*
X114151833Y-99398664D01*
X113897833Y-99398664D01*
X113813167Y-99356330D01*
X113770833Y-99313997D01*
X113728500Y-99229330D01*
X113728500Y-99059997D01*
X113770833Y-98975330D01*
X114321167Y-98424997D02*
X114278833Y-98509664D01*
X114236500Y-98551997D01*
X114151833Y-98594331D01*
X113897833Y-98594331D01*
X113813167Y-98551997D01*
X113770833Y-98509664D01*
X113728500Y-98424997D01*
X113728500Y-98297997D01*
X113770833Y-98213331D01*
X113813167Y-98170997D01*
X113897833Y-98128664D01*
X114151833Y-98128664D01*
X114236500Y-98170997D01*
X114278833Y-98213331D01*
X114321167Y-98297997D01*
X114321167Y-98424997D01*
X114321167Y-97620664D02*
X114278833Y-97705331D01*
X114194167Y-97747664D01*
X113432167Y-97747664D01*
X113728500Y-96900997D02*
X114448167Y-96900997D01*
X114532833Y-96943331D01*
X114575167Y-96985664D01*
X114617500Y-97070331D01*
X114617500Y-97197331D01*
X114575167Y-97281997D01*
X114278833Y-96900997D02*
X114321167Y-96985664D01*
X114321167Y-97154997D01*
X114278833Y-97239664D01*
X114236500Y-97281997D01*
X114151833Y-97324331D01*
X113897833Y-97324331D01*
X113813167Y-97281997D01*
X113770833Y-97239664D01*
X113728500Y-97154997D01*
X113728500Y-96985664D01*
X113770833Y-96900997D01*
X114321167Y-96096664D02*
X113855500Y-96096664D01*
X113770833Y-96138998D01*
X113728500Y-96223664D01*
X113728500Y-96392998D01*
X113770833Y-96477664D01*
X114278833Y-96096664D02*
X114321167Y-96181331D01*
X114321167Y-96392998D01*
X114278833Y-96477664D01*
X114194167Y-96519998D01*
X114109500Y-96519998D01*
X114024833Y-96477664D01*
X113982500Y-96392998D01*
X113982500Y-96181331D01*
X113940167Y-96096664D01*
X113728500Y-95673331D02*
X114321167Y-95673331D01*
X113813167Y-95673331D02*
X113770833Y-95630998D01*
X113728500Y-95546331D01*
X113728500Y-95419331D01*
X113770833Y-95334665D01*
X113855500Y-95292331D01*
X114321167Y-95292331D01*
X114321167Y-94741998D02*
X114278833Y-94826665D01*
X114236500Y-94868998D01*
X114151833Y-94911332D01*
X113897833Y-94911332D01*
X113813167Y-94868998D01*
X113770833Y-94826665D01*
X113728500Y-94741998D01*
X113728500Y-94614998D01*
X113770833Y-94530332D01*
X113813167Y-94487998D01*
X113897833Y-94445665D01*
X114151833Y-94445665D01*
X114236500Y-94487998D01*
X114278833Y-94530332D01*
X114321167Y-94614998D01*
X114321167Y-94741998D01*
X113728500Y-94191665D02*
X113728500Y-93852999D01*
X114321167Y-94064665D02*
X113559167Y-94064665D01*
X113474500Y-94022332D01*
X113432167Y-93937665D01*
X113432167Y-93852999D01*
X113728500Y-93683665D02*
X113728500Y-93344999D01*
X114321167Y-93556665D02*
X113559167Y-93556665D01*
X113474500Y-93514332D01*
X113432167Y-93429665D01*
X113432167Y-93344999D01*
X114236500Y-93048665D02*
X114278833Y-93006332D01*
X114321167Y-93048665D01*
X114278833Y-93090999D01*
X114236500Y-93048665D01*
X114321167Y-93048665D01*
X114278833Y-92244332D02*
X114321167Y-92328999D01*
X114321167Y-92498332D01*
X114278833Y-92582999D01*
X114236500Y-92625332D01*
X114151833Y-92667666D01*
X113897833Y-92667666D01*
X113813167Y-92625332D01*
X113770833Y-92582999D01*
X113728500Y-92498332D01*
X113728500Y-92328999D01*
X113770833Y-92244332D01*
X114321167Y-91736332D02*
X114278833Y-91820999D01*
X114236500Y-91863332D01*
X114151833Y-91905666D01*
X113897833Y-91905666D01*
X113813167Y-91863332D01*
X113770833Y-91820999D01*
X113728500Y-91736332D01*
X113728500Y-91609332D01*
X113770833Y-91524666D01*
X113813167Y-91482332D01*
X113897833Y-91439999D01*
X114151833Y-91439999D01*
X114236500Y-91482332D01*
X114278833Y-91524666D01*
X114321167Y-91609332D01*
X114321167Y-91736332D01*
X114321167Y-91058999D02*
X113728500Y-91058999D01*
X113813167Y-91058999D02*
X113770833Y-91016666D01*
X113728500Y-90931999D01*
X113728500Y-90804999D01*
X113770833Y-90720333D01*
X113855500Y-90677999D01*
X114321167Y-90677999D01*
X113855500Y-90677999D02*
X113770833Y-90635666D01*
X113728500Y-90550999D01*
X113728500Y-90423999D01*
X113770833Y-90339333D01*
X113855500Y-90296999D01*
X114321167Y-90296999D01*
X113389833Y-89238666D02*
X114532833Y-90000666D01*
X113728500Y-89069333D02*
X113728500Y-88730667D01*
X114321167Y-88942333D02*
X113559167Y-88942333D01*
X113474500Y-88900000D01*
X113432167Y-88815333D01*
X113432167Y-88730667D01*
X114321167Y-88434333D02*
X113728500Y-88434333D01*
X113897833Y-88434333D02*
X113813167Y-88392000D01*
X113770833Y-88349667D01*
X113728500Y-88265000D01*
X113728500Y-88180333D01*
X113389833Y-87249000D02*
X114532833Y-88011000D01*
X114321167Y-86571667D02*
X113855500Y-86571667D01*
X113770833Y-86614001D01*
X113728500Y-86698667D01*
X113728500Y-86868001D01*
X113770833Y-86952667D01*
X114278833Y-86571667D02*
X114321167Y-86656334D01*
X114321167Y-86868001D01*
X114278833Y-86952667D01*
X114194167Y-86995001D01*
X114109500Y-86995001D01*
X114024833Y-86952667D01*
X113982500Y-86868001D01*
X113982500Y-86656334D01*
X113940167Y-86571667D01*
X113982500Y-86148334D02*
X113982500Y-85471001D01*
X113728500Y-85047667D02*
X114617500Y-85047667D01*
X113770833Y-85047667D02*
X113728500Y-84963001D01*
X113728500Y-84793667D01*
X113770833Y-84709001D01*
X113813167Y-84666667D01*
X113897833Y-84624334D01*
X114151833Y-84624334D01*
X114236500Y-84666667D01*
X114278833Y-84709001D01*
X114321167Y-84793667D01*
X114321167Y-84963001D01*
X114278833Y-85047667D01*
X114321167Y-84243334D02*
X113728500Y-84243334D01*
X113897833Y-84243334D02*
X113813167Y-84201001D01*
X113770833Y-84158668D01*
X113728500Y-84074001D01*
X113728500Y-83989334D01*
X114321167Y-83566001D02*
X114278833Y-83650668D01*
X114236500Y-83693001D01*
X114151833Y-83735335D01*
X113897833Y-83735335D01*
X113813167Y-83693001D01*
X113770833Y-83650668D01*
X113728500Y-83566001D01*
X113728500Y-83439001D01*
X113770833Y-83354335D01*
X113813167Y-83312001D01*
X113897833Y-83269668D01*
X114151833Y-83269668D01*
X114236500Y-83312001D01*
X114278833Y-83354335D01*
X114321167Y-83439001D01*
X114321167Y-83566001D01*
X113728500Y-82888668D02*
X114617500Y-82888668D01*
X113770833Y-82888668D02*
X113728500Y-82804002D01*
X113728500Y-82634668D01*
X113770833Y-82550002D01*
X113813167Y-82507668D01*
X113897833Y-82465335D01*
X114151833Y-82465335D01*
X114236500Y-82507668D01*
X114278833Y-82550002D01*
X114321167Y-82634668D01*
X114321167Y-82804002D01*
X114278833Y-82888668D01*
X114321167Y-81957335D02*
X114278833Y-82042002D01*
X114236500Y-82084335D01*
X114151833Y-82126669D01*
X113897833Y-82126669D01*
X113813167Y-82084335D01*
X113770833Y-82042002D01*
X113728500Y-81957335D01*
X113728500Y-81830335D01*
X113770833Y-81745669D01*
X113813167Y-81703335D01*
X113897833Y-81661002D01*
X114151833Y-81661002D01*
X114236500Y-81703335D01*
X114278833Y-81745669D01*
X114321167Y-81830335D01*
X114321167Y-81957335D01*
X114278833Y-81322336D02*
X114321167Y-81237669D01*
X114321167Y-81068336D01*
X114278833Y-80983669D01*
X114194167Y-80941336D01*
X114151833Y-80941336D01*
X114067167Y-80983669D01*
X114024833Y-81068336D01*
X114024833Y-81195336D01*
X113982500Y-81280002D01*
X113897833Y-81322336D01*
X113855500Y-81322336D01*
X113770833Y-81280002D01*
X113728500Y-81195336D01*
X113728500Y-81068336D01*
X113770833Y-80983669D01*
X147087167Y-104393997D02*
X147044833Y-104478664D01*
X146960167Y-104520997D01*
X146198167Y-104520997D01*
X147087167Y-104055330D02*
X146494500Y-104055330D01*
X146198167Y-104055330D02*
X146240500Y-104097664D01*
X146282833Y-104055330D01*
X146240500Y-104012997D01*
X146198167Y-104055330D01*
X146282833Y-104055330D01*
X147044833Y-103250997D02*
X147087167Y-103335664D01*
X147087167Y-103504997D01*
X147044833Y-103589664D01*
X147002500Y-103631997D01*
X146917833Y-103674331D01*
X146663833Y-103674331D01*
X146579167Y-103631997D01*
X146536833Y-103589664D01*
X146494500Y-103504997D01*
X146494500Y-103335664D01*
X146536833Y-103250997D01*
X147044833Y-102531331D02*
X147087167Y-102615997D01*
X147087167Y-102785331D01*
X147044833Y-102869997D01*
X146960167Y-102912331D01*
X146621500Y-102912331D01*
X146536833Y-102869997D01*
X146494500Y-102785331D01*
X146494500Y-102615997D01*
X146536833Y-102531331D01*
X146621500Y-102488997D01*
X146706167Y-102488997D01*
X146790833Y-102912331D01*
X146494500Y-102107997D02*
X147087167Y-102107997D01*
X146579167Y-102107997D02*
X146536833Y-102065664D01*
X146494500Y-101980997D01*
X146494500Y-101853997D01*
X146536833Y-101769331D01*
X146621500Y-101726997D01*
X147087167Y-101726997D01*
X147044833Y-101345998D02*
X147087167Y-101261331D01*
X147087167Y-101091998D01*
X147044833Y-101007331D01*
X146960167Y-100964998D01*
X146917833Y-100964998D01*
X146833167Y-101007331D01*
X146790833Y-101091998D01*
X146790833Y-101218998D01*
X146748500Y-101303664D01*
X146663833Y-101345998D01*
X146621500Y-101345998D01*
X146536833Y-101303664D01*
X146494500Y-101218998D01*
X146494500Y-101091998D01*
X146536833Y-101007331D01*
X147044833Y-100245331D02*
X147087167Y-100329997D01*
X147087167Y-100499331D01*
X147044833Y-100583997D01*
X146960167Y-100626331D01*
X146621500Y-100626331D01*
X146536833Y-100583997D01*
X146494500Y-100499331D01*
X146494500Y-100329997D01*
X146536833Y-100245331D01*
X146621500Y-100202997D01*
X146706167Y-100202997D01*
X146790833Y-100626331D01*
X147087167Y-99440997D02*
X146198167Y-99440997D01*
X147044833Y-99440997D02*
X147087167Y-99525664D01*
X147087167Y-99694997D01*
X147044833Y-99779664D01*
X147002500Y-99821997D01*
X146917833Y-99864331D01*
X146663833Y-99864331D01*
X146579167Y-99821997D01*
X146536833Y-99779664D01*
X146494500Y-99694997D01*
X146494500Y-99525664D01*
X146536833Y-99440997D01*
X146494500Y-97959331D02*
X147087167Y-97959331D01*
X146494500Y-98340331D02*
X146960167Y-98340331D01*
X147044833Y-98297998D01*
X147087167Y-98213331D01*
X147087167Y-98086331D01*
X147044833Y-98001665D01*
X147002500Y-97959331D01*
X146494500Y-97535998D02*
X147087167Y-97535998D01*
X146579167Y-97535998D02*
X146536833Y-97493665D01*
X146494500Y-97408998D01*
X146494500Y-97281998D01*
X146536833Y-97197332D01*
X146621500Y-97154998D01*
X147087167Y-97154998D01*
X147087167Y-96350665D02*
X146198167Y-96350665D01*
X147044833Y-96350665D02*
X147087167Y-96435332D01*
X147087167Y-96604665D01*
X147044833Y-96689332D01*
X147002500Y-96731665D01*
X146917833Y-96773999D01*
X146663833Y-96773999D01*
X146579167Y-96731665D01*
X146536833Y-96689332D01*
X146494500Y-96604665D01*
X146494500Y-96435332D01*
X146536833Y-96350665D01*
X147044833Y-95588666D02*
X147087167Y-95673332D01*
X147087167Y-95842666D01*
X147044833Y-95927332D01*
X146960167Y-95969666D01*
X146621500Y-95969666D01*
X146536833Y-95927332D01*
X146494500Y-95842666D01*
X146494500Y-95673332D01*
X146536833Y-95588666D01*
X146621500Y-95546332D01*
X146706167Y-95546332D01*
X146790833Y-95969666D01*
X147087167Y-95165332D02*
X146494500Y-95165332D01*
X146663833Y-95165332D02*
X146579167Y-95122999D01*
X146536833Y-95080666D01*
X146494500Y-94995999D01*
X146494500Y-94911332D01*
X147002500Y-93429666D02*
X147044833Y-93472000D01*
X147087167Y-93599000D01*
X147087167Y-93683666D01*
X147044833Y-93810666D01*
X146960167Y-93895333D01*
X146875500Y-93937666D01*
X146706167Y-93980000D01*
X146579167Y-93980000D01*
X146409833Y-93937666D01*
X146325167Y-93895333D01*
X146240500Y-93810666D01*
X146198167Y-93683666D01*
X146198167Y-93599000D01*
X146240500Y-93472000D01*
X146282833Y-93429666D01*
X146621500Y-93048666D02*
X146621500Y-92752333D01*
X147087167Y-92625333D02*
X147087167Y-93048666D01*
X146198167Y-93048666D01*
X146198167Y-92625333D01*
X147087167Y-91736333D02*
X146663833Y-92032667D01*
X147087167Y-92244333D02*
X146198167Y-92244333D01*
X146198167Y-91905667D01*
X146240500Y-91821000D01*
X146282833Y-91778667D01*
X146367500Y-91736333D01*
X146494500Y-91736333D01*
X146579167Y-91778667D01*
X146621500Y-91821000D01*
X146663833Y-91905667D01*
X146663833Y-92244333D01*
X147087167Y-91355333D02*
X146198167Y-91355333D01*
X147087167Y-90847333D01*
X146198167Y-90847333D01*
X146198167Y-89577334D02*
X146198167Y-89408001D01*
X146240500Y-89323334D01*
X146325167Y-89238667D01*
X146494500Y-89196334D01*
X146790833Y-89196334D01*
X146960167Y-89238667D01*
X147044833Y-89323334D01*
X147087167Y-89408001D01*
X147087167Y-89577334D01*
X147044833Y-89662001D01*
X146960167Y-89746667D01*
X146790833Y-89789001D01*
X146494500Y-89789001D01*
X146325167Y-89746667D01*
X146240500Y-89662001D01*
X146198167Y-89577334D01*
X147087167Y-88815334D02*
X146198167Y-88815334D01*
X146621500Y-88815334D02*
X146621500Y-88307334D01*
X147087167Y-88307334D02*
X146198167Y-88307334D01*
X147087167Y-87460668D02*
X147087167Y-87884001D01*
X146198167Y-87884001D01*
X146494500Y-86571668D02*
X147087167Y-86360001D01*
X146494500Y-86148335D01*
X147002500Y-85809668D02*
X147044833Y-85767335D01*
X147087167Y-85809668D01*
X147044833Y-85852002D01*
X147002500Y-85809668D01*
X147087167Y-85809668D01*
X147087167Y-84920669D02*
X147087167Y-85428669D01*
X147087167Y-85174669D02*
X146198167Y-85174669D01*
X146325167Y-85259335D01*
X146409833Y-85344002D01*
X146452167Y-85428669D01*
X147002500Y-84539668D02*
X147044833Y-84497335D01*
X147087167Y-84539668D01*
X147044833Y-84582002D01*
X147002500Y-84539668D01*
X147087167Y-84539668D01*
X146282833Y-84158669D02*
X146240500Y-84116335D01*
X146198167Y-84031669D01*
X146198167Y-83820002D01*
X146240500Y-83735335D01*
X146282833Y-83693002D01*
X146367500Y-83650669D01*
X146452167Y-83650669D01*
X146579167Y-83693002D01*
X147087167Y-84201002D01*
X147087167Y-83650669D01*
D12*
X144887143Y-119316428D02*
X144887143Y-118173571D01*
X145458571Y-118745000D02*
X144315714Y-118745000D01*
X119884286Y-79418571D02*
X119884286Y-77918571D01*
X120527143Y-79418571D02*
X120527143Y-78632857D01*
X120455714Y-78490000D01*
X120312857Y-78418571D01*
X120098572Y-78418571D01*
X119955714Y-78490000D01*
X119884286Y-78561429D01*
X121241429Y-79418571D02*
X121241429Y-78418571D01*
X121241429Y-77918571D02*
X121170000Y-77990000D01*
X121241429Y-78061429D01*
X121312857Y-77990000D01*
X121241429Y-77918571D01*
X121241429Y-78061429D01*
X122598572Y-78418571D02*
X122598572Y-79632857D01*
X122527143Y-79775714D01*
X122455715Y-79847143D01*
X122312858Y-79918571D01*
X122098572Y-79918571D01*
X121955715Y-79847143D01*
X122598572Y-79347143D02*
X122455715Y-79418571D01*
X122170001Y-79418571D01*
X122027143Y-79347143D01*
X121955715Y-79275714D01*
X121884286Y-79132857D01*
X121884286Y-78704286D01*
X121955715Y-78561429D01*
X122027143Y-78490000D01*
X122170001Y-78418571D01*
X122455715Y-78418571D01*
X122598572Y-78490000D01*
X123312858Y-79418571D02*
X123312858Y-77918571D01*
X123955715Y-79418571D02*
X123955715Y-78632857D01*
X123884286Y-78490000D01*
X123741429Y-78418571D01*
X123527144Y-78418571D01*
X123384286Y-78490000D01*
X123312858Y-78561429D01*
X131671429Y-79418571D02*
X131671429Y-78418571D01*
X131671429Y-78561429D02*
X131742857Y-78490000D01*
X131885715Y-78418571D01*
X132100000Y-78418571D01*
X132242857Y-78490000D01*
X132314286Y-78632857D01*
X132314286Y-79418571D01*
X132314286Y-78632857D02*
X132385715Y-78490000D01*
X132528572Y-78418571D01*
X132742857Y-78418571D01*
X132885715Y-78490000D01*
X132957143Y-78632857D01*
X132957143Y-79418571D01*
X133671429Y-79418571D02*
X133671429Y-78418571D01*
X133671429Y-77918571D02*
X133600000Y-77990000D01*
X133671429Y-78061429D01*
X133742857Y-77990000D01*
X133671429Y-77918571D01*
X133671429Y-78061429D01*
X135028572Y-79418571D02*
X135028572Y-77918571D01*
X135028572Y-79347143D02*
X134885715Y-79418571D01*
X134600001Y-79418571D01*
X134457143Y-79347143D01*
X134385715Y-79275714D01*
X134314286Y-79132857D01*
X134314286Y-78704286D01*
X134385715Y-78561429D01*
X134457143Y-78490000D01*
X134600001Y-78418571D01*
X134885715Y-78418571D01*
X135028572Y-78490000D01*
X141589286Y-80053571D02*
X141446428Y-79982143D01*
X141375000Y-79839286D01*
X141375000Y-78553571D01*
X142375000Y-80053571D02*
X142232142Y-79982143D01*
X142160714Y-79910714D01*
X142089285Y-79767857D01*
X142089285Y-79339286D01*
X142160714Y-79196429D01*
X142232142Y-79125000D01*
X142375000Y-79053571D01*
X142589285Y-79053571D01*
X142732142Y-79125000D01*
X142803571Y-79196429D01*
X142875000Y-79339286D01*
X142875000Y-79767857D01*
X142803571Y-79910714D01*
X142732142Y-79982143D01*
X142589285Y-80053571D01*
X142375000Y-80053571D01*
X143375000Y-79053571D02*
X143660714Y-80053571D01*
X143946428Y-79339286D01*
X144232143Y-80053571D01*
X144517857Y-79053571D01*
D13*
X118999000Y-121031000D02*
X118999000Y-113919000D01*
X118999000Y-113919000D02*
X121031000Y-113919000D01*
X121031000Y-113919000D02*
X121031000Y-121031000D01*
X121031000Y-121031000D02*
X118999000Y-121031000D01*
X119507000Y-121031000D02*
X118999000Y-120523000D01*
D14*
X123065539Y-102235000D02*
G75*
G03X123065539Y-102235000I-3177539J0D01*
G74*
G01*
D13*
X127254000Y-89154000D02*
X134366000Y-89154000D01*
X134366000Y-89154000D02*
X134366000Y-91186000D01*
X134366000Y-91186000D02*
X127254000Y-91186000D01*
X127254000Y-91186000D02*
X127254000Y-89154000D01*
X127254000Y-89662000D02*
X127762000Y-89154000D01*
X127254000Y-92329000D02*
X134366000Y-92329000D01*
X134366000Y-92329000D02*
X134366000Y-94361000D01*
X134366000Y-94361000D02*
X127254000Y-94361000D01*
X127254000Y-94361000D02*
X127254000Y-92329000D01*
X127254000Y-92837000D02*
X127762000Y-92329000D01*
X138049000Y-85344000D02*
X145161000Y-85344000D01*
X145161000Y-85344000D02*
X145161000Y-87376000D01*
X145161000Y-87376000D02*
X138049000Y-87376000D01*
X138049000Y-87376000D02*
X138049000Y-85344000D01*
X138049000Y-85852000D02*
X138557000Y-85344000D01*
X115824000Y-85344000D02*
X122936000Y-85344000D01*
X122936000Y-85344000D02*
X122936000Y-87376000D01*
X122936000Y-87376000D02*
X115824000Y-87376000D01*
X115824000Y-87376000D02*
X115824000Y-85344000D01*
X115824000Y-85852000D02*
X116332000Y-85344000D01*
D14*
X145417539Y-106680000D02*
G75*
G03X145417539Y-106680000I-3177539J0D01*
G74*
G01*
X130177539Y-118745000D02*
G75*
G03X130177539Y-118745000I-3177539J0D01*
G74*
G01*
X140337539Y-118745000D02*
G75*
G03X140337539Y-118745000I-3177539J0D01*
G74*
G01*
D13*
X118110000Y-110490000D02*
X115570000Y-110490000D01*
X115570000Y-110490000D02*
X115570000Y-105410000D01*
X115570000Y-105410000D02*
X118110000Y-105410000D01*
X118110000Y-105410000D02*
X118110000Y-110490000D01*
X146685000Y-116840000D02*
X144145000Y-116840000D01*
X144145000Y-116840000D02*
X144145000Y-111760000D01*
X144145000Y-111760000D02*
X146685000Y-111760000D01*
X146685000Y-111760000D02*
X146685000Y-116840000D01*
X143510000Y-122555000D02*
X140970000Y-122555000D01*
X140970000Y-122555000D02*
X140970000Y-117475000D01*
X140970000Y-117475000D02*
X143510000Y-117475000D01*
X143510000Y-117475000D02*
X143510000Y-122555000D01*
X116840000Y-119380000D02*
X116840000Y-118872000D01*
X116840000Y-111760000D02*
X116840000Y-112268000D01*
X116840000Y-112268000D02*
X115824000Y-112268000D01*
X115824000Y-112268000D02*
X115824000Y-118872000D01*
X115824000Y-118872000D02*
X117856000Y-118872000D01*
X117856000Y-118872000D02*
X117856000Y-112268000D01*
X117856000Y-112268000D02*
X116840000Y-112268000D01*
X116332000Y-118872000D02*
X115824000Y-118364000D01*
X130175000Y-113665000D02*
X129667000Y-113665000D01*
X122555000Y-113665000D02*
X123063000Y-113665000D01*
X123063000Y-113665000D02*
X123063000Y-114681000D01*
X123063000Y-114681000D02*
X129667000Y-114681000D01*
X129667000Y-114681000D02*
X129667000Y-112649000D01*
X129667000Y-112649000D02*
X123063000Y-112649000D01*
X123063000Y-112649000D02*
X123063000Y-113665000D01*
X129667000Y-114173000D02*
X129159000Y-114681000D01*
X124460000Y-90170000D02*
X123952000Y-90170000D01*
X116840000Y-90170000D02*
X117348000Y-90170000D01*
X117348000Y-90170000D02*
X117348000Y-91186000D01*
X117348000Y-91186000D02*
X123952000Y-91186000D01*
X123952000Y-91186000D02*
X123952000Y-89154000D01*
X123952000Y-89154000D02*
X117348000Y-89154000D01*
X117348000Y-89154000D02*
X117348000Y-90170000D01*
X123952000Y-90678000D02*
X123444000Y-91186000D01*
X124460000Y-93345000D02*
X123952000Y-93345000D01*
X116840000Y-93345000D02*
X117348000Y-93345000D01*
X117348000Y-93345000D02*
X117348000Y-94361000D01*
X117348000Y-94361000D02*
X123952000Y-94361000D01*
X123952000Y-94361000D02*
X123952000Y-92329000D01*
X123952000Y-92329000D02*
X117348000Y-92329000D01*
X117348000Y-92329000D02*
X117348000Y-93345000D01*
X123952000Y-93853000D02*
X123444000Y-94361000D01*
X116840000Y-97155000D02*
X117348000Y-97155000D01*
X124460000Y-97155000D02*
X123952000Y-97155000D01*
X123952000Y-97155000D02*
X123952000Y-96139000D01*
X123952000Y-96139000D02*
X117348000Y-96139000D01*
X117348000Y-96139000D02*
X117348000Y-98171000D01*
X117348000Y-98171000D02*
X123952000Y-98171000D01*
X123952000Y-98171000D02*
X123952000Y-97155000D01*
X117348000Y-96647000D02*
X117856000Y-96139000D01*
X133985000Y-86360000D02*
X133477000Y-86360000D01*
X126365000Y-86360000D02*
X126873000Y-86360000D01*
X126873000Y-86360000D02*
X126873000Y-87376000D01*
X126873000Y-87376000D02*
X133477000Y-87376000D01*
X133477000Y-87376000D02*
X133477000Y-85344000D01*
X133477000Y-85344000D02*
X126873000Y-85344000D01*
X126873000Y-85344000D02*
X126873000Y-86360000D01*
X133477000Y-86868000D02*
X132969000Y-87376000D01*
X144145000Y-90170000D02*
X143637000Y-90170000D01*
X136525000Y-90170000D02*
X137033000Y-90170000D01*
X137033000Y-90170000D02*
X137033000Y-91186000D01*
X137033000Y-91186000D02*
X143637000Y-91186000D01*
X143637000Y-91186000D02*
X143637000Y-89154000D01*
X143637000Y-89154000D02*
X137033000Y-89154000D01*
X137033000Y-89154000D02*
X137033000Y-90170000D01*
X143637000Y-90678000D02*
X143129000Y-91186000D01*
X144145000Y-93345000D02*
X143637000Y-93345000D01*
X136525000Y-93345000D02*
X137033000Y-93345000D01*
X137033000Y-93345000D02*
X137033000Y-94361000D01*
X137033000Y-94361000D02*
X143637000Y-94361000D01*
X143637000Y-94361000D02*
X143637000Y-92329000D01*
X143637000Y-92329000D02*
X137033000Y-92329000D01*
X137033000Y-92329000D02*
X137033000Y-93345000D01*
X143637000Y-93853000D02*
X143129000Y-94361000D01*
X144145000Y-97155000D02*
X143637000Y-97155000D01*
X136525000Y-97155000D02*
X137033000Y-97155000D01*
X137033000Y-97155000D02*
X137033000Y-98171000D01*
X137033000Y-98171000D02*
X143637000Y-98171000D01*
X143637000Y-98171000D02*
X143637000Y-96139000D01*
X143637000Y-96139000D02*
X137033000Y-96139000D01*
X137033000Y-96139000D02*
X137033000Y-97155000D01*
X143637000Y-97663000D02*
X143129000Y-98171000D01*
X137160000Y-111125000D02*
X137160000Y-110617000D01*
X137160000Y-103505000D02*
X137160000Y-104013000D01*
X137160000Y-104013000D02*
X136144000Y-104013000D01*
X136144000Y-104013000D02*
X136144000Y-110617000D01*
X136144000Y-110617000D02*
X138176000Y-110617000D01*
X138176000Y-110617000D02*
X138176000Y-104013000D01*
X138176000Y-104013000D02*
X137160000Y-104013000D01*
X136652000Y-110617000D02*
X136144000Y-110109000D01*
X133985000Y-113665000D02*
X134493000Y-113665000D01*
X141605000Y-113665000D02*
X141097000Y-113665000D01*
X141097000Y-113665000D02*
X141097000Y-112649000D01*
X141097000Y-112649000D02*
X134493000Y-112649000D01*
X134493000Y-112649000D02*
X134493000Y-114681000D01*
X134493000Y-114681000D02*
X141097000Y-114681000D01*
X141097000Y-114681000D02*
X141097000Y-113665000D01*
X134493000Y-113157000D02*
X135001000Y-112649000D01*
X132080000Y-121285000D02*
X132080000Y-120777000D01*
X132080000Y-113665000D02*
X132080000Y-114173000D01*
X132080000Y-114173000D02*
X131064000Y-114173000D01*
X131064000Y-114173000D02*
X131064000Y-120777000D01*
X131064000Y-120777000D02*
X133096000Y-120777000D01*
X133096000Y-120777000D02*
X133096000Y-114173000D01*
X133096000Y-114173000D02*
X132080000Y-114173000D01*
X131572000Y-120777000D02*
X131064000Y-120269000D01*
X145415000Y-80645000D02*
X145415000Y-83185000D01*
X145415000Y-83185000D02*
X137795000Y-83185000D01*
X137795000Y-83185000D02*
X137795000Y-80645000D01*
X137795000Y-80645000D02*
X145415000Y-80645000D01*
X142875000Y-83185000D02*
X142875000Y-80645000D01*
X134620000Y-80645000D02*
X134620000Y-83185000D01*
X134620000Y-83185000D02*
X127000000Y-83185000D01*
X127000000Y-83185000D02*
X127000000Y-80645000D01*
X127000000Y-80645000D02*
X134620000Y-80645000D01*
X132080000Y-83185000D02*
X132080000Y-80645000D01*
X123190000Y-80645000D02*
X123190000Y-83185000D01*
X123190000Y-83185000D02*
X115570000Y-83185000D01*
X115570000Y-83185000D02*
X115570000Y-80645000D01*
X115570000Y-80645000D02*
X123190000Y-80645000D01*
X120650000Y-83185000D02*
X120650000Y-80645000D01*
D15*
X130175000Y-100965000D02*
X130175000Y-102235000D01*
X130175000Y-102235000D02*
X127635000Y-102235000D01*
X127635000Y-102235000D02*
X127635000Y-100965000D01*
X131445000Y-100965000D02*
X131445000Y-111125000D01*
X131445000Y-111125000D02*
X126365000Y-111125000D01*
X126365000Y-111125000D02*
X126365000Y-100965000D01*
X126365000Y-100965000D02*
X131445000Y-100965000D01*
D13*
X127127000Y-96139000D02*
X134239000Y-96139000D01*
X134239000Y-96139000D02*
X134239000Y-98171000D01*
X134239000Y-98171000D02*
X127127000Y-98171000D01*
X127127000Y-98171000D02*
X127127000Y-96139000D01*
X127127000Y-96647000D02*
X127635000Y-96139000D01*
D16*
X120377857Y-117644333D02*
X120426238Y-117692714D01*
X120474619Y-117837857D01*
X120474619Y-117934619D01*
X120426238Y-118079761D01*
X120329476Y-118176523D01*
X120232714Y-118224904D01*
X120039190Y-118273285D01*
X119894048Y-118273285D01*
X119700524Y-118224904D01*
X119603762Y-118176523D01*
X119507000Y-118079761D01*
X119458619Y-117934619D01*
X119458619Y-117837857D01*
X119507000Y-117692714D01*
X119555381Y-117644333D01*
X120474619Y-116676714D02*
X120474619Y-117257285D01*
X120474619Y-116966999D02*
X119458619Y-116966999D01*
X119603762Y-117063761D01*
X119700524Y-117160523D01*
X119748905Y-117257285D01*
D14*
X118892683Y-102362000D02*
X118928969Y-102398286D01*
X118965254Y-102507143D01*
X118965254Y-102579714D01*
X118928969Y-102688571D01*
X118856397Y-102761143D01*
X118783826Y-102797428D01*
X118638683Y-102833714D01*
X118529826Y-102833714D01*
X118384683Y-102797428D01*
X118312111Y-102761143D01*
X118239540Y-102688571D01*
X118203254Y-102579714D01*
X118203254Y-102507143D01*
X118239540Y-102398286D01*
X118275826Y-102362000D01*
X118275826Y-102071714D02*
X118239540Y-102035428D01*
X118203254Y-101962857D01*
X118203254Y-101781428D01*
X118239540Y-101708857D01*
X118275826Y-101672571D01*
X118348397Y-101636286D01*
X118420969Y-101636286D01*
X118529826Y-101672571D01*
X118965254Y-102108000D01*
X118965254Y-101636286D01*
D17*
X118291429Y-104938285D02*
X118291429Y-104357714D01*
X118581714Y-104648000D02*
X118001143Y-104648000D01*
D16*
X130640667Y-90532857D02*
X130592286Y-90581238D01*
X130447143Y-90629619D01*
X130350381Y-90629619D01*
X130205239Y-90581238D01*
X130108477Y-90484476D01*
X130060096Y-90387714D01*
X130011715Y-90194190D01*
X130011715Y-90049048D01*
X130060096Y-89855524D01*
X130108477Y-89758762D01*
X130205239Y-89662000D01*
X130350381Y-89613619D01*
X130447143Y-89613619D01*
X130592286Y-89662000D01*
X130640667Y-89710381D01*
X130979334Y-89613619D02*
X131608286Y-89613619D01*
X131269620Y-90000667D01*
X131414762Y-90000667D01*
X131511524Y-90049048D01*
X131559905Y-90097429D01*
X131608286Y-90194190D01*
X131608286Y-90436095D01*
X131559905Y-90532857D01*
X131511524Y-90581238D01*
X131414762Y-90629619D01*
X131124477Y-90629619D01*
X131027715Y-90581238D01*
X130979334Y-90532857D01*
X130640667Y-93707857D02*
X130592286Y-93756238D01*
X130447143Y-93804619D01*
X130350381Y-93804619D01*
X130205239Y-93756238D01*
X130108477Y-93659476D01*
X130060096Y-93562714D01*
X130011715Y-93369190D01*
X130011715Y-93224048D01*
X130060096Y-93030524D01*
X130108477Y-92933762D01*
X130205239Y-92837000D01*
X130350381Y-92788619D01*
X130447143Y-92788619D01*
X130592286Y-92837000D01*
X130640667Y-92885381D01*
X131511524Y-93127286D02*
X131511524Y-93804619D01*
X131269620Y-92740238D02*
X131027715Y-93465952D01*
X131656667Y-93465952D01*
X141435667Y-86722857D02*
X141387286Y-86771238D01*
X141242143Y-86819619D01*
X141145381Y-86819619D01*
X141000239Y-86771238D01*
X140903477Y-86674476D01*
X140855096Y-86577714D01*
X140806715Y-86384190D01*
X140806715Y-86239048D01*
X140855096Y-86045524D01*
X140903477Y-85948762D01*
X141000239Y-85852000D01*
X141145381Y-85803619D01*
X141242143Y-85803619D01*
X141387286Y-85852000D01*
X141435667Y-85900381D01*
X142354905Y-85803619D02*
X141871096Y-85803619D01*
X141822715Y-86287429D01*
X141871096Y-86239048D01*
X141967858Y-86190667D01*
X142209762Y-86190667D01*
X142306524Y-86239048D01*
X142354905Y-86287429D01*
X142403286Y-86384190D01*
X142403286Y-86626095D01*
X142354905Y-86722857D01*
X142306524Y-86771238D01*
X142209762Y-86819619D01*
X141967858Y-86819619D01*
X141871096Y-86771238D01*
X141822715Y-86722857D01*
X119210667Y-86722857D02*
X119162286Y-86771238D01*
X119017143Y-86819619D01*
X118920381Y-86819619D01*
X118775239Y-86771238D01*
X118678477Y-86674476D01*
X118630096Y-86577714D01*
X118581715Y-86384190D01*
X118581715Y-86239048D01*
X118630096Y-86045524D01*
X118678477Y-85948762D01*
X118775239Y-85852000D01*
X118920381Y-85803619D01*
X119017143Y-85803619D01*
X119162286Y-85852000D01*
X119210667Y-85900381D01*
X120081524Y-85803619D02*
X119888001Y-85803619D01*
X119791239Y-85852000D01*
X119742858Y-85900381D01*
X119646096Y-86045524D01*
X119597715Y-86239048D01*
X119597715Y-86626095D01*
X119646096Y-86722857D01*
X119694477Y-86771238D01*
X119791239Y-86819619D01*
X119984762Y-86819619D01*
X120081524Y-86771238D01*
X120129905Y-86722857D01*
X120178286Y-86626095D01*
X120178286Y-86384190D01*
X120129905Y-86287429D01*
X120081524Y-86239048D01*
X119984762Y-86190667D01*
X119791239Y-86190667D01*
X119694477Y-86239048D01*
X119646096Y-86287429D01*
X119597715Y-86384190D01*
D14*
X142113000Y-105684683D02*
X142076714Y-105720969D01*
X141967857Y-105757254D01*
X141895286Y-105757254D01*
X141786429Y-105720969D01*
X141713857Y-105648397D01*
X141677572Y-105575826D01*
X141641286Y-105430683D01*
X141641286Y-105321826D01*
X141677572Y-105176683D01*
X141713857Y-105104111D01*
X141786429Y-105031540D01*
X141895286Y-104995254D01*
X141967857Y-104995254D01*
X142076714Y-105031540D01*
X142113000Y-105067826D01*
X142367000Y-104995254D02*
X142875000Y-104995254D01*
X142548429Y-105757254D01*
D17*
X139536715Y-105083429D02*
X140117286Y-105083429D01*
X139827000Y-105373714D02*
X139827000Y-104793143D01*
D16*
D14*
X126873000Y-120284603D02*
X126836714Y-120320889D01*
X126727857Y-120357174D01*
X126655286Y-120357174D01*
X126546429Y-120320889D01*
X126473857Y-120248317D01*
X126437572Y-120175746D01*
X126401286Y-120030603D01*
X126401286Y-119921746D01*
X126437572Y-119776603D01*
X126473857Y-119704031D01*
X126546429Y-119631460D01*
X126655286Y-119595174D01*
X126727857Y-119595174D01*
X126836714Y-119631460D01*
X126873000Y-119667746D01*
X127308429Y-119921746D02*
X127235857Y-119885460D01*
X127199572Y-119849174D01*
X127163286Y-119776603D01*
X127163286Y-119740317D01*
X127199572Y-119667746D01*
X127235857Y-119631460D01*
X127308429Y-119595174D01*
X127453572Y-119595174D01*
X127526143Y-119631460D01*
X127562429Y-119667746D01*
X127598714Y-119740317D01*
X127598714Y-119776603D01*
X127562429Y-119849174D01*
X127526143Y-119885460D01*
X127453572Y-119921746D01*
X127308429Y-119921746D01*
X127235857Y-119958031D01*
X127199572Y-119994317D01*
X127163286Y-120066889D01*
X127163286Y-120212031D01*
X127199572Y-120284603D01*
X127235857Y-120320889D01*
X127308429Y-120357174D01*
X127453572Y-120357174D01*
X127526143Y-120320889D01*
X127562429Y-120284603D01*
X127598714Y-120212031D01*
X127598714Y-120066889D01*
X127562429Y-119994317D01*
X127526143Y-119958031D01*
X127453572Y-119921746D01*
D17*
X129122715Y-120450429D02*
X129703286Y-120450429D01*
X129413000Y-120740714D02*
X129413000Y-120160143D01*
D16*
D14*
X138699603Y-118872000D02*
X138735889Y-118908286D01*
X138772174Y-119017143D01*
X138772174Y-119089714D01*
X138735889Y-119198571D01*
X138663317Y-119271143D01*
X138590746Y-119307428D01*
X138445603Y-119343714D01*
X138336746Y-119343714D01*
X138191603Y-119307428D01*
X138119031Y-119271143D01*
X138046460Y-119198571D01*
X138010174Y-119089714D01*
X138010174Y-119017143D01*
X138046460Y-118908286D01*
X138082746Y-118872000D01*
X138772174Y-118509143D02*
X138772174Y-118364000D01*
X138735889Y-118291428D01*
X138699603Y-118255143D01*
X138590746Y-118182571D01*
X138445603Y-118146286D01*
X138155317Y-118146286D01*
X138082746Y-118182571D01*
X138046460Y-118218857D01*
X138010174Y-118291428D01*
X138010174Y-118436571D01*
X138046460Y-118509143D01*
X138082746Y-118545428D01*
X138155317Y-118581714D01*
X138336746Y-118581714D01*
X138409317Y-118545428D01*
X138445603Y-118509143D01*
X138481889Y-118436571D01*
X138481889Y-118291428D01*
X138445603Y-118218857D01*
X138409317Y-118182571D01*
X138336746Y-118146286D01*
D17*
X138865429Y-116622285D02*
X138865429Y-116041714D01*
X139155714Y-116332000D02*
X138575143Y-116332000D01*
D16*
D18*
X115082501Y-108752398D02*
X113352761Y-108752398D01*
X113352761Y-108338257D01*
X113435130Y-108234722D01*
X113517499Y-108182954D01*
X113682236Y-108131186D01*
X113929341Y-108131186D01*
X114094079Y-108182954D01*
X114176447Y-108234722D01*
X114258816Y-108338257D01*
X114258816Y-108752398D01*
X115082501Y-107095834D02*
X115082501Y-107717046D01*
X115082501Y-107406440D02*
X113352761Y-107406440D01*
X113599867Y-107509975D01*
X113764604Y-107613510D01*
X113846973Y-107717046D01*
X143657501Y-112562398D02*
X141927761Y-112562398D01*
X141927761Y-112148257D01*
X142010130Y-112044722D01*
X142092499Y-111992954D01*
X142257236Y-111941186D01*
X142504341Y-111941186D01*
X142669079Y-111992954D01*
X142751447Y-112044722D01*
X142833816Y-112148257D01*
X142833816Y-112562398D01*
X142092499Y-111527046D02*
X142010130Y-111475278D01*
X141927761Y-111371743D01*
X141927761Y-111112905D01*
X142010130Y-111009369D01*
X142092499Y-110957602D01*
X142257236Y-110905834D01*
X142421973Y-110905834D01*
X142669079Y-110957602D01*
X143657501Y-111578813D01*
X143657501Y-110905834D01*
X140482501Y-122849398D02*
X138752761Y-122849398D01*
X138752761Y-122435257D01*
X138835130Y-122331722D01*
X138917499Y-122279954D01*
X139082236Y-122228186D01*
X139329341Y-122228186D01*
X139494079Y-122279954D01*
X139576447Y-122331722D01*
X139658816Y-122435257D01*
X139658816Y-122849398D01*
X138752761Y-121865813D02*
X138752761Y-121192834D01*
X139411710Y-121555207D01*
X139411710Y-121399905D01*
X139494079Y-121296369D01*
X139576447Y-121244602D01*
X139741184Y-121192834D01*
X140153027Y-121192834D01*
X140317764Y-121244602D01*
X140400133Y-121296369D01*
X140482501Y-121399905D01*
X140482501Y-121710510D01*
X140400133Y-121814046D01*
X140317764Y-121865813D01*
D16*
X117471976Y-115781667D02*
X116806738Y-116205000D01*
X117471976Y-116507381D02*
X116074976Y-116507381D01*
X116074976Y-116023572D01*
X116141500Y-115902619D01*
X116208024Y-115842143D01*
X116341071Y-115781667D01*
X116540643Y-115781667D01*
X116673690Y-115842143D01*
X116740214Y-115902619D01*
X116806738Y-116023572D01*
X116806738Y-116507381D01*
X117471976Y-114572143D02*
X117471976Y-115297857D01*
X117471976Y-114935000D02*
X116074976Y-114935000D01*
X116274548Y-115055952D01*
X116407595Y-115176905D01*
X116474119Y-115297857D01*
X126153333Y-114296976D02*
X125730000Y-113631738D01*
X125427619Y-114296976D02*
X125427619Y-112899976D01*
X125911428Y-112899976D01*
X126032381Y-112966500D01*
X126092857Y-113033024D01*
X126153333Y-113166071D01*
X126153333Y-113365643D01*
X126092857Y-113498690D01*
X126032381Y-113565214D01*
X125911428Y-113631738D01*
X125427619Y-113631738D01*
X126637143Y-113033024D02*
X126697619Y-112966500D01*
X126818571Y-112899976D01*
X127120952Y-112899976D01*
X127241905Y-112966500D01*
X127302381Y-113033024D01*
X127362857Y-113166071D01*
X127362857Y-113299119D01*
X127302381Y-113498690D01*
X126576667Y-114296976D01*
X127362857Y-114296976D01*
X120438333Y-90801976D02*
X120015000Y-90136738D01*
X119712619Y-90801976D02*
X119712619Y-89404976D01*
X120196428Y-89404976D01*
X120317381Y-89471500D01*
X120377857Y-89538024D01*
X120438333Y-89671071D01*
X120438333Y-89870643D01*
X120377857Y-90003690D01*
X120317381Y-90070214D01*
X120196428Y-90136738D01*
X119712619Y-90136738D01*
X120861667Y-89404976D02*
X121647857Y-89404976D01*
X121224524Y-89937167D01*
X121405952Y-89937167D01*
X121526905Y-90003690D01*
X121587381Y-90070214D01*
X121647857Y-90203262D01*
X121647857Y-90535881D01*
X121587381Y-90668929D01*
X121526905Y-90735452D01*
X121405952Y-90801976D01*
X121043095Y-90801976D01*
X120922143Y-90735452D01*
X120861667Y-90668929D01*
X120438333Y-93976976D02*
X120015000Y-93311738D01*
X119712619Y-93976976D02*
X119712619Y-92579976D01*
X120196428Y-92579976D01*
X120317381Y-92646500D01*
X120377857Y-92713024D01*
X120438333Y-92846071D01*
X120438333Y-93045643D01*
X120377857Y-93178690D01*
X120317381Y-93245214D01*
X120196428Y-93311738D01*
X119712619Y-93311738D01*
X121526905Y-93045643D02*
X121526905Y-93976976D01*
X121224524Y-92513452D02*
X120922143Y-93511310D01*
X121708333Y-93511310D01*
X120438333Y-97786976D02*
X120015000Y-97121738D01*
X119712619Y-97786976D02*
X119712619Y-96389976D01*
X120196428Y-96389976D01*
X120317381Y-96456500D01*
X120377857Y-96523024D01*
X120438333Y-96656071D01*
X120438333Y-96855643D01*
X120377857Y-96988690D01*
X120317381Y-97055214D01*
X120196428Y-97121738D01*
X119712619Y-97121738D01*
X121587381Y-96389976D02*
X120982619Y-96389976D01*
X120922143Y-97055214D01*
X120982619Y-96988690D01*
X121103571Y-96922167D01*
X121405952Y-96922167D01*
X121526905Y-96988690D01*
X121587381Y-97055214D01*
X121647857Y-97188262D01*
X121647857Y-97520881D01*
X121587381Y-97653929D01*
X121526905Y-97720452D01*
X121405952Y-97786976D01*
X121103571Y-97786976D01*
X120982619Y-97720452D01*
X120922143Y-97653929D01*
X129963333Y-86991976D02*
X129540000Y-86326738D01*
X129237619Y-86991976D02*
X129237619Y-85594976D01*
X129721428Y-85594976D01*
X129842381Y-85661500D01*
X129902857Y-85728024D01*
X129963333Y-85861071D01*
X129963333Y-86060643D01*
X129902857Y-86193690D01*
X129842381Y-86260214D01*
X129721428Y-86326738D01*
X129237619Y-86326738D01*
X131051905Y-85594976D02*
X130810000Y-85594976D01*
X130689048Y-85661500D01*
X130628571Y-85728024D01*
X130507619Y-85927595D01*
X130447143Y-86193690D01*
X130447143Y-86725881D01*
X130507619Y-86858929D01*
X130568095Y-86925452D01*
X130689048Y-86991976D01*
X130930952Y-86991976D01*
X131051905Y-86925452D01*
X131112381Y-86858929D01*
X131172857Y-86725881D01*
X131172857Y-86393262D01*
X131112381Y-86260214D01*
X131051905Y-86193690D01*
X130930952Y-86127167D01*
X130689048Y-86127167D01*
X130568095Y-86193690D01*
X130507619Y-86260214D01*
X130447143Y-86393262D01*
X140123333Y-90801976D02*
X139700000Y-90136738D01*
X139397619Y-90801976D02*
X139397619Y-89404976D01*
X139881428Y-89404976D01*
X140002381Y-89471500D01*
X140062857Y-89538024D01*
X140123333Y-89671071D01*
X140123333Y-89870643D01*
X140062857Y-90003690D01*
X140002381Y-90070214D01*
X139881428Y-90136738D01*
X139397619Y-90136738D01*
X140546667Y-89404976D02*
X141393333Y-89404976D01*
X140849048Y-90801976D01*
X140123333Y-93976976D02*
X139700000Y-93311738D01*
X139397619Y-93976976D02*
X139397619Y-92579976D01*
X139881428Y-92579976D01*
X140002381Y-92646500D01*
X140062857Y-92713024D01*
X140123333Y-92846071D01*
X140123333Y-93045643D01*
X140062857Y-93178690D01*
X140002381Y-93245214D01*
X139881428Y-93311738D01*
X139397619Y-93311738D01*
X140849048Y-93178690D02*
X140728095Y-93112167D01*
X140667619Y-93045643D01*
X140607143Y-92912595D01*
X140607143Y-92846071D01*
X140667619Y-92713024D01*
X140728095Y-92646500D01*
X140849048Y-92579976D01*
X141090952Y-92579976D01*
X141211905Y-92646500D01*
X141272381Y-92713024D01*
X141332857Y-92846071D01*
X141332857Y-92912595D01*
X141272381Y-93045643D01*
X141211905Y-93112167D01*
X141090952Y-93178690D01*
X140849048Y-93178690D01*
X140728095Y-93245214D01*
X140667619Y-93311738D01*
X140607143Y-93444786D01*
X140607143Y-93710881D01*
X140667619Y-93843929D01*
X140728095Y-93910452D01*
X140849048Y-93976976D01*
X141090952Y-93976976D01*
X141211905Y-93910452D01*
X141272381Y-93843929D01*
X141332857Y-93710881D01*
X141332857Y-93444786D01*
X141272381Y-93311738D01*
X141211905Y-93245214D01*
X141090952Y-93178690D01*
X140123333Y-97786976D02*
X139700000Y-97121738D01*
X139397619Y-97786976D02*
X139397619Y-96389976D01*
X139881428Y-96389976D01*
X140002381Y-96456500D01*
X140062857Y-96523024D01*
X140123333Y-96656071D01*
X140123333Y-96855643D01*
X140062857Y-96988690D01*
X140002381Y-97055214D01*
X139881428Y-97121738D01*
X139397619Y-97121738D01*
X140728095Y-97786976D02*
X140970000Y-97786976D01*
X141090952Y-97720452D01*
X141151428Y-97653929D01*
X141272381Y-97454357D01*
X141332857Y-97188262D01*
X141332857Y-96656071D01*
X141272381Y-96523024D01*
X141211905Y-96456500D01*
X141090952Y-96389976D01*
X140849048Y-96389976D01*
X140728095Y-96456500D01*
X140667619Y-96523024D01*
X140607143Y-96656071D01*
X140607143Y-96988690D01*
X140667619Y-97121738D01*
X140728095Y-97188262D01*
X140849048Y-97254786D01*
X141090952Y-97254786D01*
X141211905Y-97188262D01*
X141272381Y-97121738D01*
X141332857Y-96988690D01*
X137791976Y-108131429D02*
X137126738Y-108554762D01*
X137791976Y-108857143D02*
X136394976Y-108857143D01*
X136394976Y-108373334D01*
X136461500Y-108252381D01*
X136528024Y-108191905D01*
X136661071Y-108131429D01*
X136860643Y-108131429D01*
X136993690Y-108191905D01*
X137060214Y-108252381D01*
X137126738Y-108373334D01*
X137126738Y-108857143D01*
X137791976Y-106921905D02*
X137791976Y-107647619D01*
X137791976Y-107284762D02*
X136394976Y-107284762D01*
X136594548Y-107405714D01*
X136727595Y-107526667D01*
X136794119Y-107647619D01*
X136394976Y-106135714D02*
X136394976Y-106014762D01*
X136461500Y-105893810D01*
X136528024Y-105833333D01*
X136661071Y-105772857D01*
X136927167Y-105712381D01*
X137259786Y-105712381D01*
X137525881Y-105772857D01*
X137658929Y-105833333D01*
X137725452Y-105893810D01*
X137791976Y-106014762D01*
X137791976Y-106135714D01*
X137725452Y-106256667D01*
X137658929Y-106317143D01*
X137525881Y-106377619D01*
X137259786Y-106438095D01*
X136927167Y-106438095D01*
X136661071Y-106377619D01*
X136528024Y-106317143D01*
X136461500Y-106256667D01*
X136394976Y-106135714D01*
X136978571Y-114296976D02*
X136555238Y-113631738D01*
X136252857Y-114296976D02*
X136252857Y-112899976D01*
X136736666Y-112899976D01*
X136857619Y-112966500D01*
X136918095Y-113033024D01*
X136978571Y-113166071D01*
X136978571Y-113365643D01*
X136918095Y-113498690D01*
X136857619Y-113565214D01*
X136736666Y-113631738D01*
X136252857Y-113631738D01*
X138188095Y-114296976D02*
X137462381Y-114296976D01*
X137825238Y-114296976D02*
X137825238Y-112899976D01*
X137704286Y-113099548D01*
X137583333Y-113232595D01*
X137462381Y-113299119D01*
X139397619Y-114296976D02*
X138671905Y-114296976D01*
X139034762Y-114296976D02*
X139034762Y-112899976D01*
X138913810Y-113099548D01*
X138792857Y-113232595D01*
X138671905Y-113299119D01*
X132711976Y-118291429D02*
X132046738Y-118714762D01*
X132711976Y-119017143D02*
X131314976Y-119017143D01*
X131314976Y-118533334D01*
X131381500Y-118412381D01*
X131448024Y-118351905D01*
X131581071Y-118291429D01*
X131780643Y-118291429D01*
X131913690Y-118351905D01*
X131980214Y-118412381D01*
X132046738Y-118533334D01*
X132046738Y-119017143D01*
X132711976Y-117081905D02*
X132711976Y-117807619D01*
X132711976Y-117444762D02*
X131314976Y-117444762D01*
X131514548Y-117565714D01*
X131647595Y-117686667D01*
X131714119Y-117807619D01*
X131448024Y-116598095D02*
X131381500Y-116537619D01*
X131314976Y-116416667D01*
X131314976Y-116114286D01*
X131381500Y-115993333D01*
X131448024Y-115932857D01*
X131581071Y-115872381D01*
X131714119Y-115872381D01*
X131913690Y-115932857D01*
X132711976Y-116658571D01*
X132711976Y-115872381D01*
D19*
X138423953Y-80185079D02*
X138064966Y-79332364D01*
X137808547Y-80185079D02*
X137808547Y-78394379D01*
X138218818Y-78394379D01*
X138321385Y-78479650D01*
X138372669Y-78564921D01*
X138423953Y-78735464D01*
X138423953Y-78991279D01*
X138372669Y-79161821D01*
X138321385Y-79247093D01*
X138218818Y-79332364D01*
X137808547Y-79332364D01*
X138731656Y-78394379D02*
X139090642Y-80185079D01*
X139449629Y-78394379D01*
X140372738Y-80185079D02*
X139757332Y-80185079D01*
X140065035Y-80185079D02*
X140065035Y-78394379D01*
X139962467Y-78650193D01*
X139859900Y-78820736D01*
X139757332Y-78906007D01*
X127628953Y-80185079D02*
X127269966Y-79332364D01*
X127013547Y-80185079D02*
X127013547Y-78394379D01*
X127423818Y-78394379D01*
X127526385Y-78479650D01*
X127577669Y-78564921D01*
X127628953Y-78735464D01*
X127628953Y-78991279D01*
X127577669Y-79161821D01*
X127526385Y-79247093D01*
X127423818Y-79332364D01*
X127013547Y-79332364D01*
X127936656Y-78394379D02*
X128295642Y-80185079D01*
X128654629Y-78394379D01*
X128962332Y-78564921D02*
X129013616Y-78479650D01*
X129116184Y-78394379D01*
X129372603Y-78394379D01*
X129475170Y-78479650D01*
X129526454Y-78564921D01*
X129577738Y-78735464D01*
X129577738Y-78906007D01*
X129526454Y-79161821D01*
X128911048Y-80185079D01*
X129577738Y-80185079D01*
X116833953Y-80185079D02*
X116474966Y-79332364D01*
X116218547Y-80185079D02*
X116218547Y-78394379D01*
X116628818Y-78394379D01*
X116731385Y-78479650D01*
X116782669Y-78564921D01*
X116833953Y-78735464D01*
X116833953Y-78991279D01*
X116782669Y-79161821D01*
X116731385Y-79247093D01*
X116628818Y-79332364D01*
X116218547Y-79332364D01*
X117141656Y-78394379D02*
X117500642Y-80185079D01*
X117859629Y-78394379D01*
X118116048Y-78394379D02*
X118782738Y-78394379D01*
X118423751Y-79076550D01*
X118577603Y-79076550D01*
X118680170Y-79161821D01*
X118731454Y-79247093D01*
X118782738Y-79417636D01*
X118782738Y-79843993D01*
X118731454Y-80014536D01*
X118680170Y-80099807D01*
X118577603Y-80185079D01*
X118269900Y-80185079D01*
X118167332Y-80099807D01*
X118116048Y-80014536D01*
D20*
X128034143Y-97959333D02*
X128034143Y-99398667D01*
X128088571Y-99568000D01*
X128143000Y-99652667D01*
X128251857Y-99737333D01*
X128469571Y-99737333D01*
X128578429Y-99652667D01*
X128632857Y-99568000D01*
X128687286Y-99398667D01*
X128687286Y-97959333D01*
X129830286Y-99737333D02*
X129177143Y-99737333D01*
X129503715Y-99737333D02*
X129503715Y-97959333D01*
X129394858Y-98213333D01*
X129286000Y-98382667D01*
X129177143Y-98467333D01*
D13*
D16*
X130029857Y-97517857D02*
X129981476Y-97566238D01*
X129836333Y-97614619D01*
X129739571Y-97614619D01*
X129594429Y-97566238D01*
X129497667Y-97469476D01*
X129449286Y-97372714D01*
X129400905Y-97179190D01*
X129400905Y-97034048D01*
X129449286Y-96840524D01*
X129497667Y-96743762D01*
X129594429Y-96647000D01*
X129739571Y-96598619D01*
X129836333Y-96598619D01*
X129981476Y-96647000D01*
X130029857Y-96695381D01*
X130997476Y-97614619D02*
X130416905Y-97614619D01*
X130707191Y-97614619D02*
X130707191Y-96598619D01*
X130610429Y-96743762D01*
X130513667Y-96840524D01*
X130416905Y-96888905D01*
X131626429Y-96598619D02*
X131723190Y-96598619D01*
X131819952Y-96647000D01*
X131868333Y-96695381D01*
X131916714Y-96792143D01*
X131965095Y-96985667D01*
X131965095Y-97227571D01*
X131916714Y-97421095D01*
X131868333Y-97517857D01*
X131819952Y-97566238D01*
X131723190Y-97614619D01*
X131626429Y-97614619D01*
X131529667Y-97566238D01*
X131481286Y-97517857D01*
X131432905Y-97421095D01*
X131384524Y-97227571D01*
X131384524Y-96985667D01*
X131432905Y-96792143D01*
X131481286Y-96695381D01*
X131529667Y-96647000D01*
X131626429Y-96598619D01*
%LPC*%
D21*
X120015000Y-120015000D03*
X120015000Y-114935000D03*
D22*
X119888000Y-104140000D03*
D21*
X119888000Y-100330000D03*
X128270000Y-90170000D03*
X133350000Y-90170000D03*
X128270000Y-93345000D03*
X133350000Y-93345000D03*
X139065000Y-86360000D03*
X144145000Y-86360000D03*
X116840000Y-86360000D03*
X121920000Y-86360000D03*
D22*
X140335000Y-106680000D03*
D21*
X144145000Y-106680000D03*
D22*
X128905000Y-118745000D03*
D21*
X125095000Y-118745000D03*
D22*
X137160000Y-116840000D03*
D21*
X137160000Y-120650000D03*
D22*
X116840000Y-109220000D03*
D21*
X116840000Y-106680000D03*
D22*
X145415000Y-115570000D03*
D21*
X145415000Y-113030000D03*
D22*
X142240000Y-121285000D03*
D21*
X142240000Y-118745000D03*
X116840000Y-119380000D03*
X116840000Y-111760000D03*
X130175000Y-113665000D03*
X122555000Y-113665000D03*
X124460000Y-90170000D03*
X116840000Y-90170000D03*
X124460000Y-93345000D03*
X116840000Y-93345000D03*
X116840000Y-97155000D03*
X124460000Y-97155000D03*
X133985000Y-86360000D03*
X126365000Y-86360000D03*
X144145000Y-90170000D03*
X136525000Y-90170000D03*
X144145000Y-93345000D03*
X136525000Y-93345000D03*
X144145000Y-97155000D03*
X136525000Y-97155000D03*
X137160000Y-111125000D03*
X137160000Y-103505000D03*
X133985000Y-113665000D03*
X141605000Y-113665000D03*
X132080000Y-121285000D03*
X132080000Y-113665000D03*
D22*
X144145000Y-81915000D03*
D21*
X141605000Y-81915000D03*
X139065000Y-81915000D03*
D22*
X133350000Y-81915000D03*
D21*
X130810000Y-81915000D03*
X128270000Y-81915000D03*
D22*
X121920000Y-81915000D03*
D21*
X119380000Y-81915000D03*
X116840000Y-81915000D03*
D23*
X125095000Y-102235000D03*
D24*
X125095000Y-104775000D03*
X125095000Y-107315000D03*
X125095000Y-109855000D03*
X132715000Y-109855000D03*
X132715000Y-107315000D03*
X132715000Y-104775000D03*
X132715000Y-102235000D03*
D21*
X128143000Y-97155000D03*
X133223000Y-97155000D03*
M02*
