%FSLAX46Y46*%
G04 Gerber Fmt 4.6, Leading zero omitted, Abs format (unit mm)*
G04 Created by KiCad (PCBNEW (2014-08-26 BZR 5101)-product) date 01/09/2014 19:15:49*
%MOMM*%
G01*
G04 APERTURE LIST*
%ADD10C,0.100000*%
%ADD11C,0.300000*%
%ADD12C,0.203200*%
%ADD13C,0.254000*%
%ADD14C,1.778000*%
%ADD15R,1.778000X1.778000*%
%ADD16R,2.286000X1.778000*%
%ADD17O,2.286000X1.778000*%
%ADD18C,0.635000*%
G04 APERTURE END LIST*
D10*
D11*
X119173571Y-78148571D02*
X119173571Y-76648571D01*
X119173571Y-77362857D02*
X118316428Y-77362857D01*
X118316428Y-78148571D02*
X118316428Y-76648571D01*
X141140714Y-78148571D02*
X141855000Y-78148571D01*
X141855000Y-76648571D01*
X146624524Y-108191905D02*
X146564048Y-108070952D01*
X146503571Y-108010476D01*
X146382619Y-107950000D01*
X146019762Y-107950000D01*
X145898810Y-108010476D01*
X145838333Y-108070952D01*
X145777857Y-108191905D01*
X145777857Y-108373333D01*
X145838333Y-108494285D01*
X145898810Y-108554762D01*
X146019762Y-108615238D01*
X146382619Y-108615238D01*
X146503571Y-108554762D01*
X146564048Y-108494285D01*
X146624524Y-108373333D01*
X146624524Y-108191905D01*
X145777857Y-109703810D02*
X146624524Y-109703810D01*
X145777857Y-109159524D02*
X146443095Y-109159524D01*
X146564048Y-109220000D01*
X146624524Y-109340953D01*
X146624524Y-109522381D01*
X146564048Y-109643333D01*
X146503571Y-109703810D01*
X145777857Y-110127143D02*
X145777857Y-110610953D01*
X145354524Y-110308572D02*
X146443095Y-110308572D01*
X146564048Y-110369048D01*
X146624524Y-110490001D01*
X146624524Y-110610953D01*
X116779524Y-103565476D02*
X115932857Y-103565476D01*
X115509524Y-103565476D02*
X115570000Y-103505000D01*
X115630476Y-103565476D01*
X115570000Y-103625952D01*
X115509524Y-103565476D01*
X115630476Y-103565476D01*
X115932857Y-104170238D02*
X116779524Y-104170238D01*
X116053810Y-104170238D02*
X115993333Y-104230714D01*
X115932857Y-104351667D01*
X115932857Y-104533095D01*
X115993333Y-104654047D01*
X116114286Y-104714524D01*
X116779524Y-104714524D01*
X139807143Y-118173572D02*
X139807143Y-119316429D01*
X140378571Y-118745000D02*
X139235714Y-118745000D01*
X139255572Y-120542857D02*
X140398429Y-120542857D01*
D12*
X112797167Y-99758499D02*
X112797167Y-100308832D01*
X113135833Y-100012499D01*
X113135833Y-100139499D01*
X113178167Y-100224166D01*
X113220500Y-100266499D01*
X113305167Y-100308832D01*
X113516833Y-100308832D01*
X113601500Y-100266499D01*
X113643833Y-100224166D01*
X113686167Y-100139499D01*
X113686167Y-99885499D01*
X113643833Y-99800832D01*
X113601500Y-99758499D01*
X113643833Y-101028499D02*
X113686167Y-100943833D01*
X113686167Y-100774499D01*
X113643833Y-100689833D01*
X113559167Y-100647499D01*
X113220500Y-100647499D01*
X113135833Y-100689833D01*
X113093500Y-100774499D01*
X113093500Y-100943833D01*
X113135833Y-101028499D01*
X113220500Y-101070833D01*
X113305167Y-101070833D01*
X113389833Y-100647499D01*
X113093500Y-101832833D02*
X113982500Y-101832833D01*
X113643833Y-101832833D02*
X113686167Y-101748166D01*
X113686167Y-101578833D01*
X113643833Y-101494166D01*
X113601500Y-101451833D01*
X113516833Y-101409499D01*
X113262833Y-101409499D01*
X113178167Y-101451833D01*
X113135833Y-101494166D01*
X113093500Y-101578833D01*
X113093500Y-101748166D01*
X113135833Y-101832833D01*
X113347500Y-102256166D02*
X113347500Y-102933499D01*
X113686167Y-103822499D02*
X113686167Y-103314499D01*
X113686167Y-103568499D02*
X112797167Y-103568499D01*
X112924167Y-103483833D01*
X113008833Y-103399166D01*
X113051167Y-103314499D01*
X112797167Y-104372833D02*
X112797167Y-104457500D01*
X112839500Y-104542166D01*
X112881833Y-104584500D01*
X112966500Y-104626833D01*
X113135833Y-104669166D01*
X113347500Y-104669166D01*
X113516833Y-104626833D01*
X113601500Y-104584500D01*
X113643833Y-104542166D01*
X113686167Y-104457500D01*
X113686167Y-104372833D01*
X113643833Y-104288166D01*
X113601500Y-104245833D01*
X113516833Y-104203500D01*
X113347500Y-104161166D01*
X113135833Y-104161166D01*
X112966500Y-104203500D01*
X112881833Y-104245833D01*
X112839500Y-104288166D01*
X112797167Y-104372833D01*
X112797167Y-105219500D02*
X112797167Y-105304167D01*
X112839500Y-105388833D01*
X112881833Y-105431167D01*
X112966500Y-105473500D01*
X113135833Y-105515833D01*
X113347500Y-105515833D01*
X113516833Y-105473500D01*
X113601500Y-105431167D01*
X113643833Y-105388833D01*
X113686167Y-105304167D01*
X113686167Y-105219500D01*
X113643833Y-105134833D01*
X113601500Y-105092500D01*
X113516833Y-105050167D01*
X113347500Y-105007833D01*
X113135833Y-105007833D01*
X112966500Y-105050167D01*
X112881833Y-105092500D01*
X112839500Y-105134833D01*
X112797167Y-105219500D01*
X113686167Y-105896834D02*
X112797167Y-105896834D01*
X113347500Y-105981500D02*
X113686167Y-106235500D01*
X113093500Y-106235500D02*
X113432167Y-105896834D01*
X113347500Y-106616501D02*
X113347500Y-107293834D01*
X113093500Y-108098168D02*
X113813167Y-108098168D01*
X113897833Y-108055834D01*
X113940167Y-108013501D01*
X113982500Y-107928834D01*
X113982500Y-107801834D01*
X113940167Y-107717168D01*
X113643833Y-108098168D02*
X113686167Y-108013501D01*
X113686167Y-107844168D01*
X113643833Y-107759501D01*
X113601500Y-107717168D01*
X113516833Y-107674834D01*
X113262833Y-107674834D01*
X113178167Y-107717168D01*
X113135833Y-107759501D01*
X113093500Y-107844168D01*
X113093500Y-108013501D01*
X113135833Y-108098168D01*
X113347500Y-108521501D02*
X113347500Y-109198834D01*
X113093500Y-109537501D02*
X113686167Y-109749168D01*
X113093500Y-109960834D01*
X112881833Y-110257167D02*
X112839500Y-110299501D01*
X112797167Y-110384167D01*
X112797167Y-110595834D01*
X112839500Y-110680501D01*
X112881833Y-110722834D01*
X112966500Y-110765167D01*
X113051167Y-110765167D01*
X113178167Y-110722834D01*
X113686167Y-110214834D01*
X113686167Y-110765167D01*
D13*
X147144619Y-85186763D02*
X146128619Y-85186763D01*
X147096238Y-85186763D02*
X147144619Y-85090001D01*
X147144619Y-84896478D01*
X147096238Y-84799716D01*
X147047857Y-84751335D01*
X146951095Y-84702954D01*
X146660810Y-84702954D01*
X146564048Y-84751335D01*
X146515667Y-84799716D01*
X146467286Y-84896478D01*
X146467286Y-85090001D01*
X146515667Y-85186763D01*
X147144619Y-85815716D02*
X147096238Y-85718954D01*
X147047857Y-85670573D01*
X146951095Y-85622192D01*
X146660810Y-85622192D01*
X146564048Y-85670573D01*
X146515667Y-85718954D01*
X146467286Y-85815716D01*
X146467286Y-85960858D01*
X146515667Y-86057620D01*
X146564048Y-86106001D01*
X146660810Y-86154382D01*
X146951095Y-86154382D01*
X147047857Y-86106001D01*
X147096238Y-86057620D01*
X147144619Y-85960858D01*
X147144619Y-85815716D01*
X147144619Y-86734954D02*
X147096238Y-86638192D01*
X146999476Y-86589811D01*
X146128619Y-86589811D01*
X146467286Y-87557429D02*
X147289762Y-87557429D01*
X147386524Y-87509048D01*
X147434905Y-87460667D01*
X147483286Y-87363906D01*
X147483286Y-87218763D01*
X147434905Y-87122001D01*
X147096238Y-87557429D02*
X147144619Y-87460667D01*
X147144619Y-87267144D01*
X147096238Y-87170382D01*
X147047857Y-87122001D01*
X146951095Y-87073620D01*
X146660810Y-87073620D01*
X146564048Y-87122001D01*
X146515667Y-87170382D01*
X146467286Y-87267144D01*
X146467286Y-87460667D01*
X146515667Y-87557429D01*
X147144619Y-88476667D02*
X146612429Y-88476667D01*
X146515667Y-88428286D01*
X146467286Y-88331524D01*
X146467286Y-88138001D01*
X146515667Y-88041239D01*
X147096238Y-88476667D02*
X147144619Y-88379905D01*
X147144619Y-88138001D01*
X147096238Y-88041239D01*
X146999476Y-87992858D01*
X146902714Y-87992858D01*
X146805952Y-88041239D01*
X146757571Y-88138001D01*
X146757571Y-88379905D01*
X146709190Y-88476667D01*
X146467286Y-88960477D02*
X147144619Y-88960477D01*
X146564048Y-88960477D02*
X146515667Y-89008858D01*
X146467286Y-89105620D01*
X146467286Y-89250762D01*
X146515667Y-89347524D01*
X146612429Y-89395905D01*
X147144619Y-89395905D01*
X147144619Y-90024858D02*
X147096238Y-89928096D01*
X147047857Y-89879715D01*
X146951095Y-89831334D01*
X146660810Y-89831334D01*
X146564048Y-89879715D01*
X146515667Y-89928096D01*
X146467286Y-90024858D01*
X146467286Y-90170000D01*
X146515667Y-90266762D01*
X146564048Y-90315143D01*
X146660810Y-90363524D01*
X146951095Y-90363524D01*
X147047857Y-90315143D01*
X147096238Y-90266762D01*
X147144619Y-90170000D01*
X147144619Y-90024858D01*
X146467286Y-90653810D02*
X146467286Y-91040858D01*
X147144619Y-90798953D02*
X146273762Y-90798953D01*
X146177000Y-90847334D01*
X146128619Y-90944096D01*
X146128619Y-91040858D01*
X146467286Y-91234381D02*
X146467286Y-91621429D01*
X147144619Y-91379524D02*
X146273762Y-91379524D01*
X146177000Y-91427905D01*
X146128619Y-91524667D01*
X146128619Y-91621429D01*
X147047857Y-91960095D02*
X147096238Y-92008476D01*
X147144619Y-91960095D01*
X147096238Y-91911714D01*
X147047857Y-91960095D01*
X147144619Y-91960095D01*
X147096238Y-92879333D02*
X147144619Y-92782571D01*
X147144619Y-92589048D01*
X147096238Y-92492286D01*
X147047857Y-92443905D01*
X146951095Y-92395524D01*
X146660810Y-92395524D01*
X146564048Y-92443905D01*
X146515667Y-92492286D01*
X146467286Y-92589048D01*
X146467286Y-92782571D01*
X146515667Y-92879333D01*
X147144619Y-93459905D02*
X147096238Y-93363143D01*
X147047857Y-93314762D01*
X146951095Y-93266381D01*
X146660810Y-93266381D01*
X146564048Y-93314762D01*
X146515667Y-93363143D01*
X146467286Y-93459905D01*
X146467286Y-93605047D01*
X146515667Y-93701809D01*
X146564048Y-93750190D01*
X146660810Y-93798571D01*
X146951095Y-93798571D01*
X147047857Y-93750190D01*
X147096238Y-93701809D01*
X147144619Y-93605047D01*
X147144619Y-93459905D01*
X147144619Y-94234000D02*
X146467286Y-94234000D01*
X146564048Y-94234000D02*
X146515667Y-94282381D01*
X146467286Y-94379143D01*
X146467286Y-94524285D01*
X146515667Y-94621047D01*
X146612429Y-94669428D01*
X147144619Y-94669428D01*
X146612429Y-94669428D02*
X146515667Y-94717809D01*
X146467286Y-94814571D01*
X146467286Y-94959714D01*
X146515667Y-95056476D01*
X146612429Y-95104857D01*
X147144619Y-95104857D01*
X146080238Y-96314381D02*
X147386524Y-95443524D01*
X146467286Y-96507905D02*
X146467286Y-96894953D01*
X147144619Y-96653048D02*
X146273762Y-96653048D01*
X146177000Y-96701429D01*
X146128619Y-96798191D01*
X146128619Y-96894953D01*
X147144619Y-97233619D02*
X146467286Y-97233619D01*
X146660810Y-97233619D02*
X146564048Y-97282000D01*
X146515667Y-97330381D01*
X146467286Y-97427143D01*
X146467286Y-97523904D01*
X146080238Y-98588285D02*
X147386524Y-97717428D01*
X147144619Y-99362380D02*
X146612429Y-99362380D01*
X146515667Y-99313999D01*
X146467286Y-99217237D01*
X146467286Y-99023714D01*
X146515667Y-98926952D01*
X147096238Y-99362380D02*
X147144619Y-99265618D01*
X147144619Y-99023714D01*
X147096238Y-98926952D01*
X146999476Y-98878571D01*
X146902714Y-98878571D01*
X146805952Y-98926952D01*
X146757571Y-99023714D01*
X146757571Y-99265618D01*
X146709190Y-99362380D01*
X146757571Y-99846190D02*
X146757571Y-100620285D01*
X146467286Y-101104095D02*
X147483286Y-101104095D01*
X146515667Y-101104095D02*
X146467286Y-101200857D01*
X146467286Y-101394380D01*
X146515667Y-101491142D01*
X146564048Y-101539523D01*
X146660810Y-101587904D01*
X146951095Y-101587904D01*
X147047857Y-101539523D01*
X147096238Y-101491142D01*
X147144619Y-101394380D01*
X147144619Y-101200857D01*
X147096238Y-101104095D01*
X147144619Y-102023333D02*
X146467286Y-102023333D01*
X146660810Y-102023333D02*
X146564048Y-102071714D01*
X146515667Y-102120095D01*
X146467286Y-102216857D01*
X146467286Y-102313618D01*
X147144619Y-102797428D02*
X147096238Y-102700666D01*
X147047857Y-102652285D01*
X146951095Y-102603904D01*
X146660810Y-102603904D01*
X146564048Y-102652285D01*
X146515667Y-102700666D01*
X146467286Y-102797428D01*
X146467286Y-102942570D01*
X146515667Y-103039332D01*
X146564048Y-103087713D01*
X146660810Y-103136094D01*
X146951095Y-103136094D01*
X147047857Y-103087713D01*
X147096238Y-103039332D01*
X147144619Y-102942570D01*
X147144619Y-102797428D01*
X146467286Y-103571523D02*
X147483286Y-103571523D01*
X146515667Y-103571523D02*
X146467286Y-103668285D01*
X146467286Y-103861808D01*
X146515667Y-103958570D01*
X146564048Y-104006951D01*
X146660810Y-104055332D01*
X146951095Y-104055332D01*
X147047857Y-104006951D01*
X147096238Y-103958570D01*
X147144619Y-103861808D01*
X147144619Y-103668285D01*
X147096238Y-103571523D01*
X147144619Y-104635904D02*
X147096238Y-104539142D01*
X147047857Y-104490761D01*
X146951095Y-104442380D01*
X146660810Y-104442380D01*
X146564048Y-104490761D01*
X146515667Y-104539142D01*
X146467286Y-104635904D01*
X146467286Y-104781046D01*
X146515667Y-104877808D01*
X146564048Y-104926189D01*
X146660810Y-104974570D01*
X146951095Y-104974570D01*
X147047857Y-104926189D01*
X147096238Y-104877808D01*
X147144619Y-104781046D01*
X147144619Y-104635904D01*
X147096238Y-105361618D02*
X147144619Y-105458380D01*
X147144619Y-105651904D01*
X147096238Y-105748665D01*
X146999476Y-105797046D01*
X146951095Y-105797046D01*
X146854333Y-105748665D01*
X146805952Y-105651904D01*
X146805952Y-105506761D01*
X146757571Y-105409999D01*
X146660810Y-105361618D01*
X146612429Y-105361618D01*
X146515667Y-105409999D01*
X146467286Y-105506761D01*
X146467286Y-105651904D01*
X146515667Y-105748665D01*
D14*
X120015000Y-120015000D03*
X120015000Y-114935000D03*
D15*
X119888000Y-104140000D03*
D14*
X119888000Y-100330000D03*
X128270000Y-90170000D03*
X133350000Y-90170000D03*
X128270000Y-93345000D03*
X133350000Y-93345000D03*
X139065000Y-86360000D03*
X144145000Y-86360000D03*
X116840000Y-86360000D03*
X121920000Y-86360000D03*
D15*
X140335000Y-106680000D03*
D14*
X144145000Y-106680000D03*
D15*
X128905000Y-118745000D03*
D14*
X125095000Y-118745000D03*
D15*
X137160000Y-116840000D03*
D14*
X137160000Y-120650000D03*
D15*
X116840000Y-109220000D03*
D14*
X116840000Y-106680000D03*
D15*
X145415000Y-115570000D03*
D14*
X145415000Y-113030000D03*
D15*
X142240000Y-121285000D03*
D14*
X142240000Y-118745000D03*
X116840000Y-120015000D03*
X116840000Y-112395000D03*
X130175000Y-113665000D03*
X122555000Y-113665000D03*
X124460000Y-90170000D03*
X116840000Y-90170000D03*
X124460000Y-93345000D03*
X116840000Y-93345000D03*
X116840000Y-97155000D03*
X124460000Y-97155000D03*
X133985000Y-86360000D03*
X126365000Y-86360000D03*
X144145000Y-90170000D03*
X136525000Y-90170000D03*
X144145000Y-93345000D03*
X136525000Y-93345000D03*
X144145000Y-97155000D03*
X136525000Y-97155000D03*
X137160000Y-111125000D03*
X137160000Y-103505000D03*
X133985000Y-113665000D03*
X141605000Y-113665000D03*
X132080000Y-121285000D03*
X132080000Y-113665000D03*
D15*
X144145000Y-81915000D03*
D14*
X141605000Y-81915000D03*
X139065000Y-81915000D03*
D15*
X133350000Y-81915000D03*
D14*
X130810000Y-81915000D03*
X128270000Y-81915000D03*
D15*
X121920000Y-81915000D03*
D14*
X119380000Y-81915000D03*
X116840000Y-81915000D03*
D16*
X125095000Y-102235000D03*
D17*
X125095000Y-104775000D03*
X125095000Y-107315000D03*
X125095000Y-109855000D03*
X132715000Y-109855000D03*
X132715000Y-107315000D03*
X132715000Y-104775000D03*
X132715000Y-102235000D03*
D14*
X128143000Y-97155000D03*
X133223000Y-97155000D03*
D18*
X116840000Y-120015000D02*
X120015000Y-120015000D01*
X122555000Y-108585000D02*
X123825000Y-107315000D01*
X123825000Y-107315000D02*
X125095000Y-107315000D01*
X122555000Y-113665000D02*
X122555000Y-108585000D01*
X121285000Y-113665000D02*
X122555000Y-113665000D01*
X120015000Y-114935000D02*
X121285000Y-113665000D01*
X125095000Y-104775000D02*
X120523000Y-104775000D01*
X120523000Y-104775000D02*
X119888000Y-104140000D01*
X125095000Y-102235000D02*
X125095000Y-104775000D01*
X119888000Y-100330000D02*
X121031000Y-98679000D01*
X121031000Y-98679000D02*
X121031000Y-97155000D01*
X124460000Y-97155000D02*
X121031000Y-97155000D01*
X121031000Y-97155000D02*
X117221000Y-93345000D01*
X117221000Y-93345000D02*
X116840000Y-93345000D01*
X116840000Y-93345000D02*
X116840000Y-90170000D01*
X127219469Y-78866991D02*
X136016991Y-78866991D01*
X125603000Y-80483460D02*
X127219469Y-78866991D01*
X125603000Y-82931000D02*
X125603000Y-80483460D01*
X128270000Y-85598000D02*
X125603000Y-82931000D01*
X128270000Y-90170000D02*
X128270000Y-85598000D01*
X136016991Y-78866991D02*
X139065000Y-81915000D01*
X128270000Y-90170000D02*
X124460000Y-90170000D01*
X144145000Y-81915000D02*
X144145000Y-83185000D01*
X140970000Y-90170000D02*
X136525000Y-90170000D01*
X142240000Y-88900000D02*
X140970000Y-90170000D01*
X142240000Y-85090000D02*
X142240000Y-88900000D01*
X144145000Y-83185000D02*
X142240000Y-85090000D01*
X133350000Y-90170000D02*
X136525000Y-90170000D01*
X128270000Y-93345000D02*
X128905000Y-93345000D01*
X128905000Y-93345000D02*
X130048000Y-92202000D01*
X130048000Y-92202000D02*
X130048000Y-85598000D01*
X130048000Y-85598000D02*
X128270000Y-83820000D01*
X128270000Y-83820000D02*
X128270000Y-81915000D01*
X128270000Y-93345000D02*
X124460000Y-93345000D01*
X133350000Y-93345000D02*
X131445000Y-91440000D01*
X133350000Y-83439000D02*
X133350000Y-81915000D01*
X131445000Y-85344000D02*
X133350000Y-83439000D01*
X131445000Y-91440000D02*
X131445000Y-85344000D01*
X133350000Y-93345000D02*
X136525000Y-93345000D01*
X130810000Y-81915000D02*
X130810000Y-80518000D01*
X130810000Y-80518000D02*
X131318000Y-80010000D01*
X131318000Y-80010000D02*
X135382000Y-80010000D01*
X135382000Y-80010000D02*
X136271000Y-80899000D01*
X136271000Y-80899000D02*
X136271000Y-83566000D01*
X136271000Y-83566000D02*
X139065000Y-86360000D01*
X116840000Y-85725000D02*
X119380000Y-83185000D01*
X119380000Y-83185000D02*
X119380000Y-81915000D01*
X116840000Y-86360000D02*
X116840000Y-85725000D01*
X137160000Y-111125000D02*
X140335000Y-106680000D01*
X144145000Y-106680000D02*
X144145000Y-111125000D01*
X144145000Y-111125000D02*
X145415000Y-113030000D01*
X132080000Y-113665000D02*
X132080000Y-110490000D01*
X132080000Y-110490000D02*
X132715000Y-109855000D01*
X132080000Y-113665000D02*
X132080000Y-115570000D01*
X132080000Y-115570000D02*
X128905000Y-118745000D01*
X132080000Y-113665000D02*
X133985000Y-113665000D01*
X132080000Y-113665000D02*
X130175000Y-113665000D01*
X137160000Y-121285000D02*
X137795000Y-121920000D01*
X137795000Y-121920000D02*
X141605000Y-121920000D01*
X141605000Y-121920000D02*
X142240000Y-121285000D01*
X132080000Y-121285000D02*
X132715000Y-121920000D01*
X132715000Y-121920000D02*
X136525000Y-121920000D01*
X136525000Y-121920000D02*
X137160000Y-121285000D01*
X125095000Y-121920000D02*
X131445000Y-121920000D01*
X131445000Y-121920000D02*
X132080000Y-121285000D01*
X137160000Y-120650000D02*
X137160000Y-121285000D01*
X125095000Y-118745000D02*
X125095000Y-109855000D01*
X143510000Y-121285000D02*
X145415000Y-119380000D01*
X145415000Y-119380000D02*
X145415000Y-115570000D01*
X142240000Y-121285000D02*
X143510000Y-121285000D01*
X125095000Y-121920000D02*
X125095000Y-118745000D01*
X116205000Y-121920000D02*
X125095000Y-121920000D01*
X114935000Y-120650000D02*
X116205000Y-121920000D01*
X114935000Y-111125000D02*
X114935000Y-120650000D01*
X116840000Y-109220000D02*
X114935000Y-111125000D01*
X132715000Y-102235000D02*
X135255000Y-102235000D01*
X135255000Y-102235000D02*
X135763000Y-101727000D01*
X135763000Y-101727000D02*
X138557000Y-101727000D01*
X138557000Y-101727000D02*
X142240000Y-105410000D01*
X142240000Y-105410000D02*
X142240000Y-113030000D01*
X142240000Y-113030000D02*
X141605000Y-113665000D01*
X140335000Y-116840000D02*
X141605000Y-115570000D01*
X141605000Y-115570000D02*
X141605000Y-113665000D01*
X140335000Y-116840000D02*
X142240000Y-118745000D01*
X137160000Y-116840000D02*
X140335000Y-116840000D01*
X118110000Y-112395000D02*
X116840000Y-112395000D01*
X119380000Y-107950000D02*
X118110000Y-106680000D01*
X119380000Y-111125000D02*
X119380000Y-107950000D01*
X118110000Y-112395000D02*
X119380000Y-111125000D01*
X116840000Y-106680000D02*
X118110000Y-106680000D01*
X116840000Y-97155000D02*
X114808000Y-95123000D01*
X114808000Y-83947000D02*
X116840000Y-81915000D01*
X114808000Y-95123000D02*
X114808000Y-83947000D01*
X141605000Y-81915000D02*
X140970000Y-82550000D01*
X135255000Y-86360000D02*
X133985000Y-86360000D01*
X137160000Y-88265000D02*
X140335000Y-88265000D01*
X135255000Y-86360000D02*
X137160000Y-88265000D01*
X140970000Y-87630000D02*
X140970000Y-82550000D01*
X140970000Y-87630000D02*
X140335000Y-88265000D01*
X121920000Y-81915000D02*
X121793000Y-83566000D01*
X121793000Y-83566000D02*
X119888000Y-85471000D01*
X119888000Y-85471000D02*
X120015000Y-92456000D01*
X120015000Y-92456000D02*
X122809000Y-95250000D01*
X122809000Y-95250000D02*
X134620000Y-95250000D01*
X134620000Y-95250000D02*
X136525000Y-97155000D01*
X127635000Y-100457000D02*
X122428000Y-100457000D01*
X122428000Y-100457000D02*
X120650000Y-102235000D01*
X120650000Y-102235000D02*
X118110000Y-102235000D01*
X118110000Y-102235000D02*
X113538000Y-97663000D01*
X113538000Y-97663000D02*
X113538000Y-82296000D01*
X113538000Y-82296000D02*
X115824000Y-80010000D01*
X115824000Y-80010000D02*
X123190000Y-80010000D01*
X123190000Y-80010000D02*
X123825000Y-80645000D01*
X128143000Y-97155000D02*
X128143000Y-98412235D01*
X128143000Y-98412235D02*
X127635000Y-98920235D01*
X127635000Y-98920235D02*
X127635000Y-100457000D01*
X123825000Y-80645000D02*
X126873000Y-77597000D01*
X126873000Y-77597000D02*
X136652000Y-77597000D01*
X136652000Y-77597000D02*
X138811000Y-79756000D01*
X138811000Y-79756000D02*
X145161000Y-79756000D01*
X145161000Y-79756000D02*
X146304000Y-80899000D01*
X146304000Y-80899000D02*
X146304000Y-83312000D01*
X146304000Y-83312000D02*
X144145000Y-85725000D01*
X144145000Y-85725000D02*
X144145000Y-86360000D01*
X132715000Y-107315000D02*
X132207000Y-107315000D01*
X132207000Y-107315000D02*
X127635000Y-102743000D01*
X127635000Y-102743000D02*
X127635000Y-100457000D01*
X123825000Y-86360000D02*
X123825000Y-80645000D01*
X121920000Y-86360000D02*
X123825000Y-86360000D01*
X123825000Y-86360000D02*
X126365000Y-86360000D01*
X132715000Y-107315000D02*
X132080000Y-107315000D01*
X134378765Y-99568000D02*
X141732000Y-99568000D01*
X141732000Y-99568000D02*
X144145000Y-97155000D01*
X133223000Y-97155000D02*
X133223000Y-98412235D01*
X133223000Y-98412235D02*
X134378765Y-99568000D01*
X130175000Y-102489000D02*
X130175000Y-100203000D01*
X130175000Y-100203000D02*
X133223000Y-97155000D01*
X132715000Y-104775000D02*
X132461000Y-104775000D01*
X132461000Y-104775000D02*
X130175000Y-102489000D01*
X135890000Y-104775000D02*
X137160000Y-103505000D01*
X132715000Y-104775000D02*
X135890000Y-104775000D01*
X144145000Y-90170000D02*
X144145000Y-93345000D01*
X144145000Y-93345000D02*
X144145000Y-97155000D01*
M02*
