%FSLAX46Y46*%
G04 Gerber Fmt 4.6, Leading zero omitted, Abs format (unit mm)*
G04 Created by KiCad (PCBNEW (2014-08-26 BZR 5101)-product) date 01/09/2014 19:15:49*
%MOMM*%
G01*
G04 APERTURE LIST*
%ADD10C,0.100000*%
%ADD11C,0.222250*%
%ADD12C,0.300000*%
%ADD13C,0.304800*%
%ADD14C,0.127000*%
%ADD15C,0.381000*%
%ADD16C,0.203200*%
%ADD17C,0.190500*%
%ADD18C,0.254000*%
%ADD19C,1.778000*%
%ADD20R,1.778000X1.778000*%
%ADD21R,2.286000X1.778000*%
%ADD22O,2.286000X1.778000*%
G04 APERTURE END LIST*
D10*
D11*
X113432167Y-121094501D02*
X113432167Y-120544168D01*
X113770833Y-120840501D01*
X113770833Y-120713501D01*
X113813167Y-120628834D01*
X113855500Y-120586501D01*
X113940167Y-120544168D01*
X114151833Y-120544168D01*
X114236500Y-120586501D01*
X114278833Y-120628834D01*
X114321167Y-120713501D01*
X114321167Y-120967501D01*
X114278833Y-121052168D01*
X114236500Y-121094501D01*
X114278833Y-119824501D02*
X114321167Y-119909167D01*
X114321167Y-120078501D01*
X114278833Y-120163167D01*
X114194167Y-120205501D01*
X113855500Y-120205501D01*
X113770833Y-120163167D01*
X113728500Y-120078501D01*
X113728500Y-119909167D01*
X113770833Y-119824501D01*
X113855500Y-119782167D01*
X113940167Y-119782167D01*
X114024833Y-120205501D01*
X113728500Y-119020167D02*
X114617500Y-119020167D01*
X114278833Y-119020167D02*
X114321167Y-119104834D01*
X114321167Y-119274167D01*
X114278833Y-119358834D01*
X114236500Y-119401167D01*
X114151833Y-119443501D01*
X113897833Y-119443501D01*
X113813167Y-119401167D01*
X113770833Y-119358834D01*
X113728500Y-119274167D01*
X113728500Y-119104834D01*
X113770833Y-119020167D01*
X113982500Y-118596834D02*
X113982500Y-117919501D01*
X114321167Y-117030501D02*
X114321167Y-117538501D01*
X114321167Y-117284501D02*
X113432167Y-117284501D01*
X113559167Y-117369167D01*
X113643833Y-117453834D01*
X113686167Y-117538501D01*
X113432167Y-116480167D02*
X113432167Y-116395500D01*
X113474500Y-116310834D01*
X113516833Y-116268500D01*
X113601500Y-116226167D01*
X113770833Y-116183834D01*
X113982500Y-116183834D01*
X114151833Y-116226167D01*
X114236500Y-116268500D01*
X114278833Y-116310834D01*
X114321167Y-116395500D01*
X114321167Y-116480167D01*
X114278833Y-116564834D01*
X114236500Y-116607167D01*
X114151833Y-116649500D01*
X113982500Y-116691834D01*
X113770833Y-116691834D01*
X113601500Y-116649500D01*
X113516833Y-116607167D01*
X113474500Y-116564834D01*
X113432167Y-116480167D01*
X113432167Y-115633500D02*
X113432167Y-115548833D01*
X113474500Y-115464167D01*
X113516833Y-115421833D01*
X113601500Y-115379500D01*
X113770833Y-115337167D01*
X113982500Y-115337167D01*
X114151833Y-115379500D01*
X114236500Y-115421833D01*
X114278833Y-115464167D01*
X114321167Y-115548833D01*
X114321167Y-115633500D01*
X114278833Y-115718167D01*
X114236500Y-115760500D01*
X114151833Y-115802833D01*
X113982500Y-115845167D01*
X113770833Y-115845167D01*
X113601500Y-115802833D01*
X113516833Y-115760500D01*
X113474500Y-115718167D01*
X113432167Y-115633500D01*
X114321167Y-114956166D02*
X113432167Y-114956166D01*
X113982500Y-114871500D02*
X114321167Y-114617500D01*
X113728500Y-114617500D02*
X114067167Y-114956166D01*
X113982500Y-114236499D02*
X113982500Y-113559166D01*
X113728500Y-112754832D02*
X114448167Y-112754832D01*
X114532833Y-112797166D01*
X114575167Y-112839499D01*
X114617500Y-112924166D01*
X114617500Y-113051166D01*
X114575167Y-113135832D01*
X114278833Y-112754832D02*
X114321167Y-112839499D01*
X114321167Y-113008832D01*
X114278833Y-113093499D01*
X114236500Y-113135832D01*
X114151833Y-113178166D01*
X113897833Y-113178166D01*
X113813167Y-113135832D01*
X113770833Y-113093499D01*
X113728500Y-113008832D01*
X113728500Y-112839499D01*
X113770833Y-112754832D01*
X113982500Y-112331499D02*
X113982500Y-111654166D01*
X113728500Y-111315499D02*
X114321167Y-111103832D01*
X113728500Y-110892166D01*
X113516833Y-110595833D02*
X113474500Y-110553499D01*
X113432167Y-110468833D01*
X113432167Y-110257166D01*
X113474500Y-110172499D01*
X113516833Y-110130166D01*
X113601500Y-110087833D01*
X113686167Y-110087833D01*
X113813167Y-110130166D01*
X114321167Y-110638166D01*
X114321167Y-110087833D01*
X114321167Y-98975330D02*
X113432167Y-98975330D01*
X114278833Y-98975330D02*
X114321167Y-99059997D01*
X114321167Y-99229330D01*
X114278833Y-99313997D01*
X114236500Y-99356330D01*
X114151833Y-99398664D01*
X113897833Y-99398664D01*
X113813167Y-99356330D01*
X113770833Y-99313997D01*
X113728500Y-99229330D01*
X113728500Y-99059997D01*
X113770833Y-98975330D01*
X114321167Y-98424997D02*
X114278833Y-98509664D01*
X114236500Y-98551997D01*
X114151833Y-98594331D01*
X113897833Y-98594331D01*
X113813167Y-98551997D01*
X113770833Y-98509664D01*
X113728500Y-98424997D01*
X113728500Y-98297997D01*
X113770833Y-98213331D01*
X113813167Y-98170997D01*
X113897833Y-98128664D01*
X114151833Y-98128664D01*
X114236500Y-98170997D01*
X114278833Y-98213331D01*
X114321167Y-98297997D01*
X114321167Y-98424997D01*
X114321167Y-97620664D02*
X114278833Y-97705331D01*
X114194167Y-97747664D01*
X113432167Y-97747664D01*
X113728500Y-96900997D02*
X114448167Y-96900997D01*
X114532833Y-96943331D01*
X114575167Y-96985664D01*
X114617500Y-97070331D01*
X114617500Y-97197331D01*
X114575167Y-97281997D01*
X114278833Y-96900997D02*
X114321167Y-96985664D01*
X114321167Y-97154997D01*
X114278833Y-97239664D01*
X114236500Y-97281997D01*
X114151833Y-97324331D01*
X113897833Y-97324331D01*
X113813167Y-97281997D01*
X113770833Y-97239664D01*
X113728500Y-97154997D01*
X113728500Y-96985664D01*
X113770833Y-96900997D01*
X114321167Y-96096664D02*
X113855500Y-96096664D01*
X113770833Y-96138998D01*
X113728500Y-96223664D01*
X113728500Y-96392998D01*
X113770833Y-96477664D01*
X114278833Y-96096664D02*
X114321167Y-96181331D01*
X114321167Y-96392998D01*
X114278833Y-96477664D01*
X114194167Y-96519998D01*
X114109500Y-96519998D01*
X114024833Y-96477664D01*
X113982500Y-96392998D01*
X113982500Y-96181331D01*
X113940167Y-96096664D01*
X113728500Y-95673331D02*
X114321167Y-95673331D01*
X113813167Y-95673331D02*
X113770833Y-95630998D01*
X113728500Y-95546331D01*
X113728500Y-95419331D01*
X113770833Y-95334665D01*
X113855500Y-95292331D01*
X114321167Y-95292331D01*
X114321167Y-94741998D02*
X114278833Y-94826665D01*
X114236500Y-94868998D01*
X114151833Y-94911332D01*
X113897833Y-94911332D01*
X113813167Y-94868998D01*
X113770833Y-94826665D01*
X113728500Y-94741998D01*
X113728500Y-94614998D01*
X113770833Y-94530332D01*
X113813167Y-94487998D01*
X113897833Y-94445665D01*
X114151833Y-94445665D01*
X114236500Y-94487998D01*
X114278833Y-94530332D01*
X114321167Y-94614998D01*
X114321167Y-94741998D01*
X113728500Y-94191665D02*
X113728500Y-93852999D01*
X114321167Y-94064665D02*
X113559167Y-94064665D01*
X113474500Y-94022332D01*
X113432167Y-93937665D01*
X113432167Y-93852999D01*
X113728500Y-93683665D02*
X113728500Y-93344999D01*
X114321167Y-93556665D02*
X113559167Y-93556665D01*
X113474500Y-93514332D01*
X113432167Y-93429665D01*
X113432167Y-93344999D01*
X114236500Y-93048665D02*
X114278833Y-93006332D01*
X114321167Y-93048665D01*
X114278833Y-93090999D01*
X114236500Y-93048665D01*
X114321167Y-93048665D01*
X114278833Y-92244332D02*
X114321167Y-92328999D01*
X114321167Y-92498332D01*
X114278833Y-92582999D01*
X114236500Y-92625332D01*
X114151833Y-92667666D01*
X113897833Y-92667666D01*
X113813167Y-92625332D01*
X113770833Y-92582999D01*
X113728500Y-92498332D01*
X113728500Y-92328999D01*
X113770833Y-92244332D01*
X114321167Y-91736332D02*
X114278833Y-91820999D01*
X114236500Y-91863332D01*
X114151833Y-91905666D01*
X113897833Y-91905666D01*
X113813167Y-91863332D01*
X113770833Y-91820999D01*
X113728500Y-91736332D01*
X113728500Y-91609332D01*
X113770833Y-91524666D01*
X113813167Y-91482332D01*
X113897833Y-91439999D01*
X114151833Y-91439999D01*
X114236500Y-91482332D01*
X114278833Y-91524666D01*
X114321167Y-91609332D01*
X114321167Y-91736332D01*
X114321167Y-91058999D02*
X113728500Y-91058999D01*
X113813167Y-91058999D02*
X113770833Y-91016666D01*
X113728500Y-90931999D01*
X113728500Y-90804999D01*
X113770833Y-90720333D01*
X113855500Y-90677999D01*
X114321167Y-90677999D01*
X113855500Y-90677999D02*
X113770833Y-90635666D01*
X113728500Y-90550999D01*
X113728500Y-90423999D01*
X113770833Y-90339333D01*
X113855500Y-90296999D01*
X114321167Y-90296999D01*
X113389833Y-89238666D02*
X114532833Y-90000666D01*
X113728500Y-89069333D02*
X113728500Y-88730667D01*
X114321167Y-88942333D02*
X113559167Y-88942333D01*
X113474500Y-88900000D01*
X113432167Y-88815333D01*
X113432167Y-88730667D01*
X114321167Y-88434333D02*
X113728500Y-88434333D01*
X113897833Y-88434333D02*
X113813167Y-88392000D01*
X113770833Y-88349667D01*
X113728500Y-88265000D01*
X113728500Y-88180333D01*
X113389833Y-87249000D02*
X114532833Y-88011000D01*
X114321167Y-86571667D02*
X113855500Y-86571667D01*
X113770833Y-86614001D01*
X113728500Y-86698667D01*
X113728500Y-86868001D01*
X113770833Y-86952667D01*
X114278833Y-86571667D02*
X114321167Y-86656334D01*
X114321167Y-86868001D01*
X114278833Y-86952667D01*
X114194167Y-86995001D01*
X114109500Y-86995001D01*
X114024833Y-86952667D01*
X113982500Y-86868001D01*
X113982500Y-86656334D01*
X113940167Y-86571667D01*
X113982500Y-86148334D02*
X113982500Y-85471001D01*
X113728500Y-85047667D02*
X114617500Y-85047667D01*
X113770833Y-85047667D02*
X113728500Y-84963001D01*
X113728500Y-84793667D01*
X113770833Y-84709001D01*
X113813167Y-84666667D01*
X113897833Y-84624334D01*
X114151833Y-84624334D01*
X114236500Y-84666667D01*
X114278833Y-84709001D01*
X114321167Y-84793667D01*
X114321167Y-84963001D01*
X114278833Y-85047667D01*
X114321167Y-84243334D02*
X113728500Y-84243334D01*
X113897833Y-84243334D02*
X113813167Y-84201001D01*
X113770833Y-84158668D01*
X113728500Y-84074001D01*
X113728500Y-83989334D01*
X114321167Y-83566001D02*
X114278833Y-83650668D01*
X114236500Y-83693001D01*
X114151833Y-83735335D01*
X113897833Y-83735335D01*
X113813167Y-83693001D01*
X113770833Y-83650668D01*
X113728500Y-83566001D01*
X113728500Y-83439001D01*
X113770833Y-83354335D01*
X113813167Y-83312001D01*
X113897833Y-83269668D01*
X114151833Y-83269668D01*
X114236500Y-83312001D01*
X114278833Y-83354335D01*
X114321167Y-83439001D01*
X114321167Y-83566001D01*
X113728500Y-82888668D02*
X114617500Y-82888668D01*
X113770833Y-82888668D02*
X113728500Y-82804002D01*
X113728500Y-82634668D01*
X113770833Y-82550002D01*
X113813167Y-82507668D01*
X113897833Y-82465335D01*
X114151833Y-82465335D01*
X114236500Y-82507668D01*
X114278833Y-82550002D01*
X114321167Y-82634668D01*
X114321167Y-82804002D01*
X114278833Y-82888668D01*
X114321167Y-81957335D02*
X114278833Y-82042002D01*
X114236500Y-82084335D01*
X114151833Y-82126669D01*
X113897833Y-82126669D01*
X113813167Y-82084335D01*
X113770833Y-82042002D01*
X113728500Y-81957335D01*
X113728500Y-81830335D01*
X113770833Y-81745669D01*
X113813167Y-81703335D01*
X113897833Y-81661002D01*
X114151833Y-81661002D01*
X114236500Y-81703335D01*
X114278833Y-81745669D01*
X114321167Y-81830335D01*
X114321167Y-81957335D01*
X114278833Y-81322336D02*
X114321167Y-81237669D01*
X114321167Y-81068336D01*
X114278833Y-80983669D01*
X114194167Y-80941336D01*
X114151833Y-80941336D01*
X114067167Y-80983669D01*
X114024833Y-81068336D01*
X114024833Y-81195336D01*
X113982500Y-81280002D01*
X113897833Y-81322336D01*
X113855500Y-81322336D01*
X113770833Y-81280002D01*
X113728500Y-81195336D01*
X113728500Y-81068336D01*
X113770833Y-80983669D01*
X147087167Y-104393997D02*
X147044833Y-104478664D01*
X146960167Y-104520997D01*
X146198167Y-104520997D01*
X147087167Y-104055330D02*
X146494500Y-104055330D01*
X146198167Y-104055330D02*
X146240500Y-104097664D01*
X146282833Y-104055330D01*
X146240500Y-104012997D01*
X146198167Y-104055330D01*
X146282833Y-104055330D01*
X147044833Y-103250997D02*
X147087167Y-103335664D01*
X147087167Y-103504997D01*
X147044833Y-103589664D01*
X147002500Y-103631997D01*
X146917833Y-103674331D01*
X146663833Y-103674331D01*
X146579167Y-103631997D01*
X146536833Y-103589664D01*
X146494500Y-103504997D01*
X146494500Y-103335664D01*
X146536833Y-103250997D01*
X147044833Y-102531331D02*
X147087167Y-102615997D01*
X147087167Y-102785331D01*
X147044833Y-102869997D01*
X146960167Y-102912331D01*
X146621500Y-102912331D01*
X146536833Y-102869997D01*
X146494500Y-102785331D01*
X146494500Y-102615997D01*
X146536833Y-102531331D01*
X146621500Y-102488997D01*
X146706167Y-102488997D01*
X146790833Y-102912331D01*
X146494500Y-102107997D02*
X147087167Y-102107997D01*
X146579167Y-102107997D02*
X146536833Y-102065664D01*
X146494500Y-101980997D01*
X146494500Y-101853997D01*
X146536833Y-101769331D01*
X146621500Y-101726997D01*
X147087167Y-101726997D01*
X147044833Y-101345998D02*
X147087167Y-101261331D01*
X147087167Y-101091998D01*
X147044833Y-101007331D01*
X146960167Y-100964998D01*
X146917833Y-100964998D01*
X146833167Y-101007331D01*
X146790833Y-101091998D01*
X146790833Y-101218998D01*
X146748500Y-101303664D01*
X146663833Y-101345998D01*
X146621500Y-101345998D01*
X146536833Y-101303664D01*
X146494500Y-101218998D01*
X146494500Y-101091998D01*
X146536833Y-101007331D01*
X147044833Y-100245331D02*
X147087167Y-100329997D01*
X147087167Y-100499331D01*
X147044833Y-100583997D01*
X146960167Y-100626331D01*
X146621500Y-100626331D01*
X146536833Y-100583997D01*
X146494500Y-100499331D01*
X146494500Y-100329997D01*
X146536833Y-100245331D01*
X146621500Y-100202997D01*
X146706167Y-100202997D01*
X146790833Y-100626331D01*
X147087167Y-99440997D02*
X146198167Y-99440997D01*
X147044833Y-99440997D02*
X147087167Y-99525664D01*
X147087167Y-99694997D01*
X147044833Y-99779664D01*
X147002500Y-99821997D01*
X146917833Y-99864331D01*
X146663833Y-99864331D01*
X146579167Y-99821997D01*
X146536833Y-99779664D01*
X146494500Y-99694997D01*
X146494500Y-99525664D01*
X146536833Y-99440997D01*
X146494500Y-97959331D02*
X147087167Y-97959331D01*
X146494500Y-98340331D02*
X146960167Y-98340331D01*
X147044833Y-98297998D01*
X147087167Y-98213331D01*
X147087167Y-98086331D01*
X147044833Y-98001665D01*
X147002500Y-97959331D01*
X146494500Y-97535998D02*
X147087167Y-97535998D01*
X146579167Y-97535998D02*
X146536833Y-97493665D01*
X146494500Y-97408998D01*
X146494500Y-97281998D01*
X146536833Y-97197332D01*
X146621500Y-97154998D01*
X147087167Y-97154998D01*
X147087167Y-96350665D02*
X146198167Y-96350665D01*
X147044833Y-96350665D02*
X147087167Y-96435332D01*
X147087167Y-96604665D01*
X147044833Y-96689332D01*
X147002500Y-96731665D01*
X146917833Y-96773999D01*
X146663833Y-96773999D01*
X146579167Y-96731665D01*
X146536833Y-96689332D01*
X146494500Y-96604665D01*
X146494500Y-96435332D01*
X146536833Y-96350665D01*
X147044833Y-95588666D02*
X147087167Y-95673332D01*
X147087167Y-95842666D01*
X147044833Y-95927332D01*
X146960167Y-95969666D01*
X146621500Y-95969666D01*
X146536833Y-95927332D01*
X146494500Y-95842666D01*
X146494500Y-95673332D01*
X146536833Y-95588666D01*
X146621500Y-95546332D01*
X146706167Y-95546332D01*
X146790833Y-95969666D01*
X147087167Y-95165332D02*
X146494500Y-95165332D01*
X146663833Y-95165332D02*
X146579167Y-95122999D01*
X146536833Y-95080666D01*
X146494500Y-94995999D01*
X146494500Y-94911332D01*
X147002500Y-93429666D02*
X147044833Y-93472000D01*
X147087167Y-93599000D01*
X147087167Y-93683666D01*
X147044833Y-93810666D01*
X146960167Y-93895333D01*
X146875500Y-93937666D01*
X146706167Y-93980000D01*
X146579167Y-93980000D01*
X146409833Y-93937666D01*
X146325167Y-93895333D01*
X146240500Y-93810666D01*
X146198167Y-93683666D01*
X146198167Y-93599000D01*
X146240500Y-93472000D01*
X146282833Y-93429666D01*
X146621500Y-93048666D02*
X146621500Y-92752333D01*
X147087167Y-92625333D02*
X147087167Y-93048666D01*
X146198167Y-93048666D01*
X146198167Y-92625333D01*
X147087167Y-91736333D02*
X146663833Y-92032667D01*
X147087167Y-92244333D02*
X146198167Y-92244333D01*
X146198167Y-91905667D01*
X146240500Y-91821000D01*
X146282833Y-91778667D01*
X146367500Y-91736333D01*
X146494500Y-91736333D01*
X146579167Y-91778667D01*
X146621500Y-91821000D01*
X146663833Y-91905667D01*
X146663833Y-92244333D01*
X147087167Y-91355333D02*
X146198167Y-91355333D01*
X147087167Y-90847333D01*
X146198167Y-90847333D01*
X146198167Y-89577334D02*
X146198167Y-89408001D01*
X146240500Y-89323334D01*
X146325167Y-89238667D01*
X146494500Y-89196334D01*
X146790833Y-89196334D01*
X146960167Y-89238667D01*
X147044833Y-89323334D01*
X147087167Y-89408001D01*
X147087167Y-89577334D01*
X147044833Y-89662001D01*
X146960167Y-89746667D01*
X146790833Y-89789001D01*
X146494500Y-89789001D01*
X146325167Y-89746667D01*
X146240500Y-89662001D01*
X146198167Y-89577334D01*
X147087167Y-88815334D02*
X146198167Y-88815334D01*
X146621500Y-88815334D02*
X146621500Y-88307334D01*
X147087167Y-88307334D02*
X146198167Y-88307334D01*
X147087167Y-87460668D02*
X147087167Y-87884001D01*
X146198167Y-87884001D01*
X146494500Y-86571668D02*
X147087167Y-86360001D01*
X146494500Y-86148335D01*
X147002500Y-85809668D02*
X147044833Y-85767335D01*
X147087167Y-85809668D01*
X147044833Y-85852002D01*
X147002500Y-85809668D01*
X147087167Y-85809668D01*
X147087167Y-84920669D02*
X147087167Y-85428669D01*
X147087167Y-85174669D02*
X146198167Y-85174669D01*
X146325167Y-85259335D01*
X146409833Y-85344002D01*
X146452167Y-85428669D01*
X147002500Y-84539668D02*
X147044833Y-84497335D01*
X147087167Y-84539668D01*
X147044833Y-84582002D01*
X147002500Y-84539668D01*
X147087167Y-84539668D01*
X146282833Y-84158669D02*
X146240500Y-84116335D01*
X146198167Y-84031669D01*
X146198167Y-83820002D01*
X146240500Y-83735335D01*
X146282833Y-83693002D01*
X146367500Y-83650669D01*
X146452167Y-83650669D01*
X146579167Y-83693002D01*
X147087167Y-84201002D01*
X147087167Y-83650669D01*
D12*
X145522143Y-119316428D02*
X145522143Y-118173571D01*
X146093571Y-118745000D02*
X144950714Y-118745000D01*
X145522143Y-121856428D02*
X145522143Y-120713571D01*
X119884286Y-79418571D02*
X119884286Y-77918571D01*
X120527143Y-79418571D02*
X120527143Y-78632857D01*
X120455714Y-78490000D01*
X120312857Y-78418571D01*
X120098572Y-78418571D01*
X119955714Y-78490000D01*
X119884286Y-78561429D01*
X121241429Y-79418571D02*
X121241429Y-78418571D01*
X121241429Y-77918571D02*
X121170000Y-77990000D01*
X121241429Y-78061429D01*
X121312857Y-77990000D01*
X121241429Y-77918571D01*
X121241429Y-78061429D01*
X122598572Y-78418571D02*
X122598572Y-79632857D01*
X122527143Y-79775714D01*
X122455715Y-79847143D01*
X122312858Y-79918571D01*
X122098572Y-79918571D01*
X121955715Y-79847143D01*
X122598572Y-79347143D02*
X122455715Y-79418571D01*
X122170001Y-79418571D01*
X122027143Y-79347143D01*
X121955715Y-79275714D01*
X121884286Y-79132857D01*
X121884286Y-78704286D01*
X121955715Y-78561429D01*
X122027143Y-78490000D01*
X122170001Y-78418571D01*
X122455715Y-78418571D01*
X122598572Y-78490000D01*
X123312858Y-79418571D02*
X123312858Y-77918571D01*
X123955715Y-79418571D02*
X123955715Y-78632857D01*
X123884286Y-78490000D01*
X123741429Y-78418571D01*
X123527144Y-78418571D01*
X123384286Y-78490000D01*
X123312858Y-78561429D01*
X131671429Y-79418571D02*
X131671429Y-78418571D01*
X131671429Y-78561429D02*
X131742857Y-78490000D01*
X131885715Y-78418571D01*
X132100000Y-78418571D01*
X132242857Y-78490000D01*
X132314286Y-78632857D01*
X132314286Y-79418571D01*
X132314286Y-78632857D02*
X132385715Y-78490000D01*
X132528572Y-78418571D01*
X132742857Y-78418571D01*
X132885715Y-78490000D01*
X132957143Y-78632857D01*
X132957143Y-79418571D01*
X133671429Y-79418571D02*
X133671429Y-78418571D01*
X133671429Y-77918571D02*
X133600000Y-77990000D01*
X133671429Y-78061429D01*
X133742857Y-77990000D01*
X133671429Y-77918571D01*
X133671429Y-78061429D01*
X135028572Y-79418571D02*
X135028572Y-77918571D01*
X135028572Y-79347143D02*
X134885715Y-79418571D01*
X134600001Y-79418571D01*
X134457143Y-79347143D01*
X134385715Y-79275714D01*
X134314286Y-79132857D01*
X134314286Y-78704286D01*
X134385715Y-78561429D01*
X134457143Y-78490000D01*
X134600001Y-78418571D01*
X134885715Y-78418571D01*
X135028572Y-78490000D01*
X142859286Y-79418571D02*
X142716428Y-79347143D01*
X142645000Y-79204286D01*
X142645000Y-77918571D01*
X143645000Y-79418571D02*
X143502142Y-79347143D01*
X143430714Y-79275714D01*
X143359285Y-79132857D01*
X143359285Y-78704286D01*
X143430714Y-78561429D01*
X143502142Y-78490000D01*
X143645000Y-78418571D01*
X143859285Y-78418571D01*
X144002142Y-78490000D01*
X144073571Y-78561429D01*
X144145000Y-78704286D01*
X144145000Y-79132857D01*
X144073571Y-79275714D01*
X144002142Y-79347143D01*
X143859285Y-79418571D01*
X143645000Y-79418571D01*
X144645000Y-78418571D02*
X144930714Y-79418571D01*
X145216428Y-78704286D01*
X145502143Y-79418571D01*
X145787857Y-78418571D01*
D13*
X118999000Y-121031000D02*
X118999000Y-113919000D01*
X118999000Y-113919000D02*
X121031000Y-113919000D01*
X121031000Y-113919000D02*
X121031000Y-121031000D01*
X121031000Y-121031000D02*
X118999000Y-121031000D01*
X119507000Y-121031000D02*
X118999000Y-120523000D01*
D14*
X123065539Y-102235000D02*
G75*
G03X123065539Y-102235000I-3177539J0D01*
G74*
G01*
D13*
X127254000Y-89154000D02*
X134366000Y-89154000D01*
X134366000Y-89154000D02*
X134366000Y-91186000D01*
X134366000Y-91186000D02*
X127254000Y-91186000D01*
X127254000Y-91186000D02*
X127254000Y-89154000D01*
X127254000Y-89662000D02*
X127762000Y-89154000D01*
X127254000Y-92329000D02*
X134366000Y-92329000D01*
X134366000Y-92329000D02*
X134366000Y-94361000D01*
X134366000Y-94361000D02*
X127254000Y-94361000D01*
X127254000Y-94361000D02*
X127254000Y-92329000D01*
X127254000Y-92837000D02*
X127762000Y-92329000D01*
X138049000Y-85344000D02*
X145161000Y-85344000D01*
X145161000Y-85344000D02*
X145161000Y-87376000D01*
X145161000Y-87376000D02*
X138049000Y-87376000D01*
X138049000Y-87376000D02*
X138049000Y-85344000D01*
X138049000Y-85852000D02*
X138557000Y-85344000D01*
X115824000Y-85344000D02*
X122936000Y-85344000D01*
X122936000Y-85344000D02*
X122936000Y-87376000D01*
X122936000Y-87376000D02*
X115824000Y-87376000D01*
X115824000Y-87376000D02*
X115824000Y-85344000D01*
X115824000Y-85852000D02*
X116332000Y-85344000D01*
D14*
X145417539Y-106680000D02*
G75*
G03X145417539Y-106680000I-3177539J0D01*
G74*
G01*
X130177539Y-118745000D02*
G75*
G03X130177539Y-118745000I-3177539J0D01*
G74*
G01*
X140337539Y-118745000D02*
G75*
G03X140337539Y-118745000I-3177539J0D01*
G74*
G01*
D13*
X118110000Y-110490000D02*
X115570000Y-110490000D01*
X115570000Y-110490000D02*
X115570000Y-105410000D01*
X115570000Y-105410000D02*
X118110000Y-105410000D01*
X118110000Y-105410000D02*
X118110000Y-110490000D01*
X146685000Y-116840000D02*
X144145000Y-116840000D01*
X144145000Y-116840000D02*
X144145000Y-111760000D01*
X144145000Y-111760000D02*
X146685000Y-111760000D01*
X146685000Y-111760000D02*
X146685000Y-116840000D01*
X143510000Y-122555000D02*
X140970000Y-122555000D01*
X140970000Y-122555000D02*
X140970000Y-117475000D01*
X140970000Y-117475000D02*
X143510000Y-117475000D01*
X143510000Y-117475000D02*
X143510000Y-122555000D01*
X116840000Y-120015000D02*
X116840000Y-119507000D01*
X116840000Y-112395000D02*
X116840000Y-112903000D01*
X116840000Y-112903000D02*
X115824000Y-112903000D01*
X115824000Y-112903000D02*
X115824000Y-119507000D01*
X115824000Y-119507000D02*
X117856000Y-119507000D01*
X117856000Y-119507000D02*
X117856000Y-112903000D01*
X117856000Y-112903000D02*
X116840000Y-112903000D01*
X116332000Y-119507000D02*
X115824000Y-118999000D01*
X130175000Y-113665000D02*
X129667000Y-113665000D01*
X122555000Y-113665000D02*
X123063000Y-113665000D01*
X123063000Y-113665000D02*
X123063000Y-114681000D01*
X123063000Y-114681000D02*
X129667000Y-114681000D01*
X129667000Y-114681000D02*
X129667000Y-112649000D01*
X129667000Y-112649000D02*
X123063000Y-112649000D01*
X123063000Y-112649000D02*
X123063000Y-113665000D01*
X129667000Y-114173000D02*
X129159000Y-114681000D01*
X124460000Y-90170000D02*
X123952000Y-90170000D01*
X116840000Y-90170000D02*
X117348000Y-90170000D01*
X117348000Y-90170000D02*
X117348000Y-91186000D01*
X117348000Y-91186000D02*
X123952000Y-91186000D01*
X123952000Y-91186000D02*
X123952000Y-89154000D01*
X123952000Y-89154000D02*
X117348000Y-89154000D01*
X117348000Y-89154000D02*
X117348000Y-90170000D01*
X123952000Y-90678000D02*
X123444000Y-91186000D01*
X124460000Y-93345000D02*
X123952000Y-93345000D01*
X116840000Y-93345000D02*
X117348000Y-93345000D01*
X117348000Y-93345000D02*
X117348000Y-94361000D01*
X117348000Y-94361000D02*
X123952000Y-94361000D01*
X123952000Y-94361000D02*
X123952000Y-92329000D01*
X123952000Y-92329000D02*
X117348000Y-92329000D01*
X117348000Y-92329000D02*
X117348000Y-93345000D01*
X123952000Y-93853000D02*
X123444000Y-94361000D01*
X116840000Y-97155000D02*
X117348000Y-97155000D01*
X124460000Y-97155000D02*
X123952000Y-97155000D01*
X123952000Y-97155000D02*
X123952000Y-96139000D01*
X123952000Y-96139000D02*
X117348000Y-96139000D01*
X117348000Y-96139000D02*
X117348000Y-98171000D01*
X117348000Y-98171000D02*
X123952000Y-98171000D01*
X123952000Y-98171000D02*
X123952000Y-97155000D01*
X117348000Y-96647000D02*
X117856000Y-96139000D01*
X133985000Y-86360000D02*
X133477000Y-86360000D01*
X126365000Y-86360000D02*
X126873000Y-86360000D01*
X126873000Y-86360000D02*
X126873000Y-87376000D01*
X126873000Y-87376000D02*
X133477000Y-87376000D01*
X133477000Y-87376000D02*
X133477000Y-85344000D01*
X133477000Y-85344000D02*
X126873000Y-85344000D01*
X126873000Y-85344000D02*
X126873000Y-86360000D01*
X133477000Y-86868000D02*
X132969000Y-87376000D01*
X144145000Y-90170000D02*
X143637000Y-90170000D01*
X136525000Y-90170000D02*
X137033000Y-90170000D01*
X137033000Y-90170000D02*
X137033000Y-91186000D01*
X137033000Y-91186000D02*
X143637000Y-91186000D01*
X143637000Y-91186000D02*
X143637000Y-89154000D01*
X143637000Y-89154000D02*
X137033000Y-89154000D01*
X137033000Y-89154000D02*
X137033000Y-90170000D01*
X143637000Y-90678000D02*
X143129000Y-91186000D01*
X144145000Y-93345000D02*
X143637000Y-93345000D01*
X136525000Y-93345000D02*
X137033000Y-93345000D01*
X137033000Y-93345000D02*
X137033000Y-94361000D01*
X137033000Y-94361000D02*
X143637000Y-94361000D01*
X143637000Y-94361000D02*
X143637000Y-92329000D01*
X143637000Y-92329000D02*
X137033000Y-92329000D01*
X137033000Y-92329000D02*
X137033000Y-93345000D01*
X143637000Y-93853000D02*
X143129000Y-94361000D01*
X144145000Y-97155000D02*
X143637000Y-97155000D01*
X136525000Y-97155000D02*
X137033000Y-97155000D01*
X137033000Y-97155000D02*
X137033000Y-98171000D01*
X137033000Y-98171000D02*
X143637000Y-98171000D01*
X143637000Y-98171000D02*
X143637000Y-96139000D01*
X143637000Y-96139000D02*
X137033000Y-96139000D01*
X137033000Y-96139000D02*
X137033000Y-97155000D01*
X143637000Y-97663000D02*
X143129000Y-98171000D01*
X137160000Y-111125000D02*
X137160000Y-110617000D01*
X137160000Y-103505000D02*
X137160000Y-104013000D01*
X137160000Y-104013000D02*
X136144000Y-104013000D01*
X136144000Y-104013000D02*
X136144000Y-110617000D01*
X136144000Y-110617000D02*
X138176000Y-110617000D01*
X138176000Y-110617000D02*
X138176000Y-104013000D01*
X138176000Y-104013000D02*
X137160000Y-104013000D01*
X136652000Y-110617000D02*
X136144000Y-110109000D01*
X133985000Y-113665000D02*
X134493000Y-113665000D01*
X141605000Y-113665000D02*
X141097000Y-113665000D01*
X141097000Y-113665000D02*
X141097000Y-112649000D01*
X141097000Y-112649000D02*
X134493000Y-112649000D01*
X134493000Y-112649000D02*
X134493000Y-114681000D01*
X134493000Y-114681000D02*
X141097000Y-114681000D01*
X141097000Y-114681000D02*
X141097000Y-113665000D01*
X134493000Y-113157000D02*
X135001000Y-112649000D01*
X132080000Y-121285000D02*
X132080000Y-120777000D01*
X132080000Y-113665000D02*
X132080000Y-114173000D01*
X132080000Y-114173000D02*
X131064000Y-114173000D01*
X131064000Y-114173000D02*
X131064000Y-120777000D01*
X131064000Y-120777000D02*
X133096000Y-120777000D01*
X133096000Y-120777000D02*
X133096000Y-114173000D01*
X133096000Y-114173000D02*
X132080000Y-114173000D01*
X131572000Y-120777000D02*
X131064000Y-120269000D01*
X145415000Y-80645000D02*
X145415000Y-83185000D01*
X145415000Y-83185000D02*
X137795000Y-83185000D01*
X137795000Y-83185000D02*
X137795000Y-80645000D01*
X137795000Y-80645000D02*
X145415000Y-80645000D01*
X142875000Y-83185000D02*
X142875000Y-80645000D01*
X134620000Y-80645000D02*
X134620000Y-83185000D01*
X134620000Y-83185000D02*
X127000000Y-83185000D01*
X127000000Y-83185000D02*
X127000000Y-80645000D01*
X127000000Y-80645000D02*
X134620000Y-80645000D01*
X132080000Y-83185000D02*
X132080000Y-80645000D01*
X123190000Y-80645000D02*
X123190000Y-83185000D01*
X123190000Y-83185000D02*
X115570000Y-83185000D01*
X115570000Y-83185000D02*
X115570000Y-80645000D01*
X115570000Y-80645000D02*
X123190000Y-80645000D01*
X120650000Y-83185000D02*
X120650000Y-80645000D01*
D15*
X130175000Y-100965000D02*
X130175000Y-102235000D01*
X130175000Y-102235000D02*
X127635000Y-102235000D01*
X127635000Y-102235000D02*
X127635000Y-100965000D01*
X131445000Y-100965000D02*
X131445000Y-111125000D01*
X131445000Y-111125000D02*
X126365000Y-111125000D01*
X126365000Y-111125000D02*
X126365000Y-100965000D01*
X126365000Y-100965000D02*
X131445000Y-100965000D01*
D13*
X127127000Y-96139000D02*
X134239000Y-96139000D01*
X134239000Y-96139000D02*
X134239000Y-98171000D01*
X134239000Y-98171000D02*
X127127000Y-98171000D01*
X127127000Y-98171000D02*
X127127000Y-96139000D01*
X127127000Y-96647000D02*
X127635000Y-96139000D01*
D16*
X119458619Y-118708714D02*
X119458619Y-118611953D01*
X119507000Y-118515191D01*
X119555381Y-118466810D01*
X119652143Y-118418429D01*
X119845667Y-118370048D01*
X120087571Y-118370048D01*
X120281095Y-118418429D01*
X120377857Y-118466810D01*
X120426238Y-118515191D01*
X120474619Y-118611953D01*
X120474619Y-118708714D01*
X120426238Y-118805476D01*
X120377857Y-118853857D01*
X120281095Y-118902238D01*
X120087571Y-118950619D01*
X119845667Y-118950619D01*
X119652143Y-118902238D01*
X119555381Y-118853857D01*
X119507000Y-118805476D01*
X119458619Y-118708714D01*
X120377857Y-117934619D02*
X120426238Y-117886238D01*
X120474619Y-117934619D01*
X120426238Y-117983000D01*
X120377857Y-117934619D01*
X120474619Y-117934619D01*
X120474619Y-116918619D02*
X120474619Y-117499190D01*
X120474619Y-117208904D02*
X119458619Y-117208904D01*
X119603762Y-117305666D01*
X119700524Y-117402428D01*
X119748905Y-117499190D01*
X119797286Y-116047762D02*
X120474619Y-116047762D01*
X119797286Y-116483190D02*
X120329476Y-116483190D01*
X120426238Y-116434809D01*
X120474619Y-116338047D01*
X120474619Y-116192905D01*
X120426238Y-116096143D01*
X120377857Y-116047762D01*
D14*
X120813286Y-103157262D02*
X120777000Y-103127024D01*
X120740714Y-103066547D01*
X120740714Y-102915357D01*
X120777000Y-102854881D01*
X120813286Y-102824643D01*
X120885857Y-102794404D01*
X120958429Y-102794404D01*
X121067286Y-102824643D01*
X121502714Y-103187500D01*
X121502714Y-102794404D01*
X121430143Y-102522262D02*
X121466429Y-102492023D01*
X121502714Y-102522262D01*
X121466429Y-102552500D01*
X121430143Y-102522262D01*
X121502714Y-102522262D01*
X120813286Y-102250119D02*
X120777000Y-102219881D01*
X120740714Y-102159404D01*
X120740714Y-102008214D01*
X120777000Y-101947738D01*
X120813286Y-101917500D01*
X120885857Y-101887261D01*
X120958429Y-101887261D01*
X121067286Y-101917500D01*
X121502714Y-102280357D01*
X121502714Y-101887261D01*
X120994714Y-101342976D02*
X121502714Y-101342976D01*
X120994714Y-101615119D02*
X121393857Y-101615119D01*
X121466429Y-101584880D01*
X121502714Y-101524404D01*
X121502714Y-101433690D01*
X121466429Y-101373214D01*
X121430143Y-101342976D01*
D17*
X118291429Y-104938285D02*
X118291429Y-104357714D01*
X118581714Y-104648000D02*
X118001143Y-104648000D01*
D16*
X130156857Y-90629619D02*
X129576286Y-90629619D01*
X129866572Y-90629619D02*
X129866572Y-89613619D01*
X129769810Y-89758762D01*
X129673048Y-89855524D01*
X129576286Y-89903905D01*
X130785810Y-89613619D02*
X130882571Y-89613619D01*
X130979333Y-89662000D01*
X131027714Y-89710381D01*
X131076095Y-89807143D01*
X131124476Y-90000667D01*
X131124476Y-90242571D01*
X131076095Y-90436095D01*
X131027714Y-90532857D01*
X130979333Y-90581238D01*
X130882571Y-90629619D01*
X130785810Y-90629619D01*
X130689048Y-90581238D01*
X130640667Y-90532857D01*
X130592286Y-90436095D01*
X130543905Y-90242571D01*
X130543905Y-90000667D01*
X130592286Y-89807143D01*
X130640667Y-89710381D01*
X130689048Y-89662000D01*
X130785810Y-89613619D01*
X131559905Y-89952286D02*
X131559905Y-90629619D01*
X131559905Y-90049048D02*
X131608286Y-90000667D01*
X131705048Y-89952286D01*
X131850190Y-89952286D01*
X131946952Y-90000667D01*
X131995333Y-90097429D01*
X131995333Y-90629619D01*
X129914952Y-93804619D02*
X129334381Y-93804619D01*
X129624667Y-93804619D02*
X129624667Y-92788619D01*
X129527905Y-92933762D01*
X129431143Y-93030524D01*
X129334381Y-93078905D01*
X130350381Y-93707857D02*
X130398762Y-93756238D01*
X130350381Y-93804619D01*
X130302000Y-93756238D01*
X130350381Y-93707857D01*
X130350381Y-93804619D01*
X131318000Y-92788619D02*
X130834191Y-92788619D01*
X130785810Y-93272429D01*
X130834191Y-93224048D01*
X130930953Y-93175667D01*
X131172857Y-93175667D01*
X131269619Y-93224048D01*
X131318000Y-93272429D01*
X131366381Y-93369190D01*
X131366381Y-93611095D01*
X131318000Y-93707857D01*
X131269619Y-93756238D01*
X131172857Y-93804619D01*
X130930953Y-93804619D01*
X130834191Y-93756238D01*
X130785810Y-93707857D01*
X131801810Y-93127286D02*
X131801810Y-93804619D01*
X131801810Y-93224048D02*
X131850191Y-93175667D01*
X131946953Y-93127286D01*
X132092095Y-93127286D01*
X132188857Y-93175667D01*
X132237238Y-93272429D01*
X132237238Y-93804619D01*
X140613190Y-85803619D02*
X140419667Y-85803619D01*
X140322905Y-85852000D01*
X140274524Y-85900381D01*
X140177762Y-86045524D01*
X140129381Y-86239048D01*
X140129381Y-86626095D01*
X140177762Y-86722857D01*
X140226143Y-86771238D01*
X140322905Y-86819619D01*
X140516428Y-86819619D01*
X140613190Y-86771238D01*
X140661571Y-86722857D01*
X140709952Y-86626095D01*
X140709952Y-86384190D01*
X140661571Y-86287429D01*
X140613190Y-86239048D01*
X140516428Y-86190667D01*
X140322905Y-86190667D01*
X140226143Y-86239048D01*
X140177762Y-86287429D01*
X140129381Y-86384190D01*
X141145381Y-86722857D02*
X141193762Y-86771238D01*
X141145381Y-86819619D01*
X141097000Y-86771238D01*
X141145381Y-86722857D01*
X141145381Y-86819619D01*
X141774334Y-86239048D02*
X141677572Y-86190667D01*
X141629191Y-86142286D01*
X141580810Y-86045524D01*
X141580810Y-85997143D01*
X141629191Y-85900381D01*
X141677572Y-85852000D01*
X141774334Y-85803619D01*
X141967857Y-85803619D01*
X142064619Y-85852000D01*
X142113000Y-85900381D01*
X142161381Y-85997143D01*
X142161381Y-86045524D01*
X142113000Y-86142286D01*
X142064619Y-86190667D01*
X141967857Y-86239048D01*
X141774334Y-86239048D01*
X141677572Y-86287429D01*
X141629191Y-86335810D01*
X141580810Y-86432571D01*
X141580810Y-86626095D01*
X141629191Y-86722857D01*
X141677572Y-86771238D01*
X141774334Y-86819619D01*
X141967857Y-86819619D01*
X142064619Y-86771238D01*
X142113000Y-86722857D01*
X142161381Y-86626095D01*
X142161381Y-86432571D01*
X142113000Y-86335810D01*
X142064619Y-86287429D01*
X141967857Y-86239048D01*
X142596810Y-86142286D02*
X142596810Y-86819619D01*
X142596810Y-86239048D02*
X142645191Y-86190667D01*
X142741953Y-86142286D01*
X142887095Y-86142286D01*
X142983857Y-86190667D01*
X143032238Y-86287429D01*
X143032238Y-86819619D01*
X118484952Y-86819619D02*
X117904381Y-86819619D01*
X118194667Y-86819619D02*
X118194667Y-85803619D01*
X118097905Y-85948762D01*
X118001143Y-86045524D01*
X117904381Y-86093905D01*
X118920381Y-86722857D02*
X118968762Y-86771238D01*
X118920381Y-86819619D01*
X118872000Y-86771238D01*
X118920381Y-86722857D01*
X118920381Y-86819619D01*
X119888000Y-85803619D02*
X119404191Y-85803619D01*
X119355810Y-86287429D01*
X119404191Y-86239048D01*
X119500953Y-86190667D01*
X119742857Y-86190667D01*
X119839619Y-86239048D01*
X119888000Y-86287429D01*
X119936381Y-86384190D01*
X119936381Y-86626095D01*
X119888000Y-86722857D01*
X119839619Y-86771238D01*
X119742857Y-86819619D01*
X119500953Y-86819619D01*
X119404191Y-86771238D01*
X119355810Y-86722857D01*
X120371810Y-86142286D02*
X120371810Y-86819619D01*
X120371810Y-86239048D02*
X120420191Y-86190667D01*
X120516953Y-86142286D01*
X120662095Y-86142286D01*
X120758857Y-86190667D01*
X120807238Y-86287429D01*
X120807238Y-86819619D01*
D14*
X141831786Y-108294714D02*
X141468928Y-108294714D01*
X141650357Y-108294714D02*
X141650357Y-107532714D01*
X141589881Y-107641571D01*
X141529405Y-107714143D01*
X141468928Y-107750429D01*
X142224881Y-107532714D02*
X142285357Y-107532714D01*
X142345833Y-107569000D01*
X142376071Y-107605286D01*
X142406309Y-107677857D01*
X142436548Y-107823000D01*
X142436548Y-108004429D01*
X142406309Y-108149571D01*
X142376071Y-108222143D01*
X142345833Y-108258429D01*
X142285357Y-108294714D01*
X142224881Y-108294714D01*
X142164405Y-108258429D01*
X142134167Y-108222143D01*
X142103928Y-108149571D01*
X142073690Y-108004429D01*
X142073690Y-107823000D01*
X142103928Y-107677857D01*
X142134167Y-107605286D01*
X142164405Y-107569000D01*
X142224881Y-107532714D01*
X142980833Y-107786714D02*
X142980833Y-108294714D01*
X142708690Y-107786714D02*
X142708690Y-108185857D01*
X142738929Y-108258429D01*
X142799405Y-108294714D01*
X142890119Y-108294714D01*
X142950595Y-108258429D01*
X142980833Y-108222143D01*
D17*
X139536715Y-105083429D02*
X140117286Y-105083429D01*
X139827000Y-105373714D02*
X139827000Y-104793143D01*
D16*
D14*
X126894167Y-117819714D02*
X126531309Y-117819714D01*
X126712738Y-117819714D02*
X126712738Y-117057714D01*
X126652262Y-117166571D01*
X126591786Y-117239143D01*
X126531309Y-117275429D01*
X127438452Y-117311714D02*
X127438452Y-117819714D01*
X127166309Y-117311714D02*
X127166309Y-117710857D01*
X127196548Y-117783429D01*
X127257024Y-117819714D01*
X127347738Y-117819714D01*
X127408214Y-117783429D01*
X127438452Y-117747143D01*
D17*
X129122715Y-120450429D02*
X129703286Y-120450429D01*
X129413000Y-120740714D02*
X129413000Y-120160143D01*
D16*
D14*
X136234714Y-119153214D02*
X136234714Y-119516072D01*
X136234714Y-119334643D02*
X135472714Y-119334643D01*
X135581571Y-119395119D01*
X135654143Y-119455595D01*
X135690429Y-119516072D01*
X135472714Y-118760119D02*
X135472714Y-118699643D01*
X135509000Y-118639167D01*
X135545286Y-118608929D01*
X135617857Y-118578691D01*
X135763000Y-118548452D01*
X135944429Y-118548452D01*
X136089571Y-118578691D01*
X136162143Y-118608929D01*
X136198429Y-118639167D01*
X136234714Y-118699643D01*
X136234714Y-118760119D01*
X136198429Y-118820595D01*
X136162143Y-118850833D01*
X136089571Y-118881072D01*
X135944429Y-118911310D01*
X135763000Y-118911310D01*
X135617857Y-118881072D01*
X135545286Y-118850833D01*
X135509000Y-118820595D01*
X135472714Y-118760119D01*
X135726714Y-118004167D02*
X136234714Y-118004167D01*
X135726714Y-118276310D02*
X136125857Y-118276310D01*
X136198429Y-118246071D01*
X136234714Y-118185595D01*
X136234714Y-118094881D01*
X136198429Y-118034405D01*
X136162143Y-118004167D01*
D17*
X138865429Y-116622285D02*
X138865429Y-116041714D01*
X139155714Y-116332000D02*
X138575143Y-116332000D01*
D16*
D18*
X114989429Y-107139619D02*
X113465429Y-107139619D01*
X113973429Y-106655809D02*
X114989429Y-106655809D01*
X114118571Y-106655809D02*
X114046000Y-106607428D01*
X113973429Y-106510666D01*
X113973429Y-106365524D01*
X114046000Y-106268762D01*
X114191143Y-106220381D01*
X114989429Y-106220381D01*
X145215429Y-110701666D02*
X145215429Y-110508143D01*
X145288000Y-110411381D01*
X145433143Y-110314619D01*
X145723429Y-110266238D01*
X146231429Y-110266238D01*
X146521714Y-110314619D01*
X146666857Y-110411381D01*
X146739429Y-110508143D01*
X146739429Y-110701666D01*
X146666857Y-110798428D01*
X146521714Y-110895190D01*
X146231429Y-110943571D01*
X145723429Y-110943571D01*
X145433143Y-110895190D01*
X145288000Y-110798428D01*
X145215429Y-110701666D01*
X145723429Y-109395381D02*
X146739429Y-109395381D01*
X145723429Y-109830809D02*
X146521714Y-109830809D01*
X146666857Y-109782428D01*
X146739429Y-109685666D01*
X146739429Y-109540524D01*
X146666857Y-109443762D01*
X146594286Y-109395381D01*
X145723429Y-109056714D02*
X145723429Y-108669666D01*
X145215429Y-108911571D02*
X146521714Y-108911571D01*
X146666857Y-108863190D01*
X146739429Y-108766428D01*
X146739429Y-108669666D01*
X140643429Y-120625809D02*
X139119429Y-120625809D01*
X139119429Y-120238762D01*
X139192000Y-120142000D01*
X139264571Y-120093619D01*
X139409714Y-120045238D01*
X139627429Y-120045238D01*
X139772571Y-120093619D01*
X139845143Y-120142000D01*
X139917714Y-120238762D01*
X139917714Y-120625809D01*
X140643429Y-119464666D02*
X140570857Y-119561428D01*
X140498286Y-119609809D01*
X140353143Y-119658190D01*
X139917714Y-119658190D01*
X139772571Y-119609809D01*
X139700000Y-119561428D01*
X139627429Y-119464666D01*
X139627429Y-119319524D01*
X139700000Y-119222762D01*
X139772571Y-119174381D01*
X139917714Y-119126000D01*
X140353143Y-119126000D01*
X140498286Y-119174381D01*
X140570857Y-119222762D01*
X140643429Y-119319524D01*
X140643429Y-119464666D01*
X139627429Y-118787333D02*
X140643429Y-118593809D01*
X139917714Y-118400286D01*
X140643429Y-118206762D01*
X139627429Y-118013238D01*
X140570857Y-117239143D02*
X140643429Y-117335905D01*
X140643429Y-117529428D01*
X140570857Y-117626190D01*
X140425714Y-117674571D01*
X139845143Y-117674571D01*
X139700000Y-117626190D01*
X139627429Y-117529428D01*
X139627429Y-117335905D01*
X139700000Y-117239143D01*
X139845143Y-117190762D01*
X139990286Y-117190762D01*
X140135429Y-117674571D01*
X140643429Y-116755333D02*
X139627429Y-116755333D01*
X139917714Y-116755333D02*
X139772571Y-116706952D01*
X139700000Y-116658571D01*
X139627429Y-116561809D01*
X139627429Y-116465048D01*
D13*
D16*
X117471976Y-116477143D02*
X117471976Y-117202857D01*
X117471976Y-116840000D02*
X116074976Y-116840000D01*
X116274548Y-116960952D01*
X116407595Y-117081905D01*
X116474119Y-117202857D01*
X117471976Y-115932857D02*
X116074976Y-115932857D01*
X117471976Y-115207143D02*
X116673690Y-115751428D01*
X116074976Y-115207143D02*
X116873262Y-115932857D01*
X124822857Y-112899976D02*
X124218095Y-112899976D01*
X124157619Y-113565214D01*
X124218095Y-113498690D01*
X124339047Y-113432167D01*
X124641428Y-113432167D01*
X124762381Y-113498690D01*
X124822857Y-113565214D01*
X124883333Y-113698262D01*
X124883333Y-114030881D01*
X124822857Y-114163929D01*
X124762381Y-114230452D01*
X124641428Y-114296976D01*
X124339047Y-114296976D01*
X124218095Y-114230452D01*
X124157619Y-114163929D01*
X125427619Y-114296976D02*
X125427619Y-112899976D01*
X125850952Y-113897833D01*
X126274286Y-112899976D01*
X126274286Y-114296976D01*
X127362857Y-114230452D02*
X127241905Y-114296976D01*
X127000000Y-114296976D01*
X126879048Y-114230452D01*
X126818572Y-114097405D01*
X126818572Y-113565214D01*
X126879048Y-113432167D01*
X127000000Y-113365643D01*
X127241905Y-113365643D01*
X127362857Y-113432167D01*
X127423334Y-113565214D01*
X127423334Y-113698262D01*
X126818572Y-113831310D01*
X128511905Y-113365643D02*
X128511905Y-114496548D01*
X128451428Y-114629595D01*
X128390952Y-114696119D01*
X128270000Y-114762643D01*
X128088571Y-114762643D01*
X127967619Y-114696119D01*
X128511905Y-114230452D02*
X128390952Y-114296976D01*
X128149048Y-114296976D01*
X128028095Y-114230452D01*
X127967619Y-114163929D01*
X127907143Y-114030881D01*
X127907143Y-113631738D01*
X127967619Y-113498690D01*
X128028095Y-113432167D01*
X128149048Y-113365643D01*
X128390952Y-113365643D01*
X128511905Y-113432167D01*
X119047381Y-89538024D02*
X119107857Y-89471500D01*
X119228809Y-89404976D01*
X119531190Y-89404976D01*
X119652143Y-89471500D01*
X119712619Y-89538024D01*
X119773095Y-89671071D01*
X119773095Y-89804119D01*
X119712619Y-90003690D01*
X118986905Y-90801976D01*
X119773095Y-90801976D01*
X120256905Y-89538024D02*
X120317381Y-89471500D01*
X120438333Y-89404976D01*
X120740714Y-89404976D01*
X120861667Y-89471500D01*
X120922143Y-89538024D01*
X120982619Y-89671071D01*
X120982619Y-89804119D01*
X120922143Y-90003690D01*
X120196429Y-90801976D01*
X120982619Y-90801976D01*
X121526905Y-90801976D02*
X121526905Y-89404976D01*
X122252619Y-90801976D02*
X121708334Y-90003690D01*
X122252619Y-89404976D02*
X121526905Y-90203262D01*
X119773095Y-93976976D02*
X119047381Y-93976976D01*
X119410238Y-93976976D02*
X119410238Y-92579976D01*
X119289286Y-92779548D01*
X119168333Y-92912595D01*
X119047381Y-92979119D01*
X120559286Y-92579976D02*
X120680238Y-92579976D01*
X120801190Y-92646500D01*
X120861667Y-92713024D01*
X120922143Y-92846071D01*
X120982619Y-93112167D01*
X120982619Y-93444786D01*
X120922143Y-93710881D01*
X120861667Y-93843929D01*
X120801190Y-93910452D01*
X120680238Y-93976976D01*
X120559286Y-93976976D01*
X120438333Y-93910452D01*
X120377857Y-93843929D01*
X120317381Y-93710881D01*
X120256905Y-93444786D01*
X120256905Y-93112167D01*
X120317381Y-92846071D01*
X120377857Y-92713024D01*
X120438333Y-92646500D01*
X120559286Y-92579976D01*
X121526905Y-93976976D02*
X121526905Y-92579976D01*
X122252619Y-93976976D02*
X121708334Y-93178690D01*
X122252619Y-92579976D02*
X121526905Y-93378262D01*
X119349762Y-96855643D02*
X119349762Y-97786976D01*
X119047381Y-96323452D02*
X118745000Y-97321310D01*
X119531190Y-97321310D01*
X120015000Y-97653929D02*
X120075476Y-97720452D01*
X120015000Y-97786976D01*
X119954524Y-97720452D01*
X120015000Y-97653929D01*
X120015000Y-97786976D01*
X120498810Y-96389976D02*
X121345476Y-96389976D01*
X120801191Y-97786976D01*
X121829286Y-97786976D02*
X121829286Y-96389976D01*
X122555000Y-97786976D02*
X122010715Y-96988690D01*
X122555000Y-96389976D02*
X121829286Y-97188262D01*
X128572381Y-85728024D02*
X128632857Y-85661500D01*
X128753809Y-85594976D01*
X129056190Y-85594976D01*
X129177143Y-85661500D01*
X129237619Y-85728024D01*
X129298095Y-85861071D01*
X129298095Y-85994119D01*
X129237619Y-86193690D01*
X128511905Y-86991976D01*
X129298095Y-86991976D01*
X129781905Y-85728024D02*
X129842381Y-85661500D01*
X129963333Y-85594976D01*
X130265714Y-85594976D01*
X130386667Y-85661500D01*
X130447143Y-85728024D01*
X130507619Y-85861071D01*
X130507619Y-85994119D01*
X130447143Y-86193690D01*
X129721429Y-86991976D01*
X130507619Y-86991976D01*
X131051905Y-86991976D02*
X131051905Y-85594976D01*
X131777619Y-86991976D02*
X131233334Y-86193690D01*
X131777619Y-85594976D02*
X131051905Y-86393262D01*
X138732381Y-89538024D02*
X138792857Y-89471500D01*
X138913809Y-89404976D01*
X139216190Y-89404976D01*
X139337143Y-89471500D01*
X139397619Y-89538024D01*
X139458095Y-89671071D01*
X139458095Y-89804119D01*
X139397619Y-90003690D01*
X138671905Y-90801976D01*
X139458095Y-90801976D01*
X139941905Y-89538024D02*
X140002381Y-89471500D01*
X140123333Y-89404976D01*
X140425714Y-89404976D01*
X140546667Y-89471500D01*
X140607143Y-89538024D01*
X140667619Y-89671071D01*
X140667619Y-89804119D01*
X140607143Y-90003690D01*
X139881429Y-90801976D01*
X140667619Y-90801976D01*
X141211905Y-90801976D02*
X141211905Y-89404976D01*
X141937619Y-90801976D02*
X141393334Y-90003690D01*
X141937619Y-89404976D02*
X141211905Y-90203262D01*
X139458095Y-93976976D02*
X138732381Y-93976976D01*
X139095238Y-93976976D02*
X139095238Y-92579976D01*
X138974286Y-92779548D01*
X138853333Y-92912595D01*
X138732381Y-92979119D01*
X140244286Y-92579976D02*
X140365238Y-92579976D01*
X140486190Y-92646500D01*
X140546667Y-92713024D01*
X140607143Y-92846071D01*
X140667619Y-93112167D01*
X140667619Y-93444786D01*
X140607143Y-93710881D01*
X140546667Y-93843929D01*
X140486190Y-93910452D01*
X140365238Y-93976976D01*
X140244286Y-93976976D01*
X140123333Y-93910452D01*
X140062857Y-93843929D01*
X140002381Y-93710881D01*
X139941905Y-93444786D01*
X139941905Y-93112167D01*
X140002381Y-92846071D01*
X140062857Y-92713024D01*
X140123333Y-92646500D01*
X140244286Y-92579976D01*
X141211905Y-93976976D02*
X141211905Y-92579976D01*
X141937619Y-93976976D02*
X141393334Y-93178690D01*
X141937619Y-92579976D02*
X141211905Y-93378262D01*
X139034762Y-96855643D02*
X139034762Y-97786976D01*
X138732381Y-96323452D02*
X138430000Y-97321310D01*
X139216190Y-97321310D01*
X139700000Y-97653929D02*
X139760476Y-97720452D01*
X139700000Y-97786976D01*
X139639524Y-97720452D01*
X139700000Y-97653929D01*
X139700000Y-97786976D01*
X140183810Y-96389976D02*
X141030476Y-96389976D01*
X140486191Y-97786976D01*
X141514286Y-97786976D02*
X141514286Y-96389976D01*
X142240000Y-97786976D02*
X141695715Y-96988690D01*
X142240000Y-96389976D02*
X141514286Y-97188262D01*
X136394976Y-108222143D02*
X136394976Y-108826905D01*
X137060214Y-108887381D01*
X136993690Y-108826905D01*
X136927167Y-108705953D01*
X136927167Y-108403572D01*
X136993690Y-108282619D01*
X137060214Y-108222143D01*
X137193262Y-108161667D01*
X137525881Y-108161667D01*
X137658929Y-108222143D01*
X137725452Y-108282619D01*
X137791976Y-108403572D01*
X137791976Y-108705953D01*
X137725452Y-108826905D01*
X137658929Y-108887381D01*
X136394976Y-107375476D02*
X136394976Y-107254524D01*
X136461500Y-107133572D01*
X136528024Y-107073095D01*
X136661071Y-107012619D01*
X136927167Y-106952143D01*
X137259786Y-106952143D01*
X137525881Y-107012619D01*
X137658929Y-107073095D01*
X137725452Y-107133572D01*
X137791976Y-107254524D01*
X137791976Y-107375476D01*
X137725452Y-107496429D01*
X137658929Y-107556905D01*
X137525881Y-107617381D01*
X137259786Y-107677857D01*
X136927167Y-107677857D01*
X136661071Y-107617381D01*
X136528024Y-107556905D01*
X136461500Y-107496429D01*
X136394976Y-107375476D01*
X136394976Y-106165952D02*
X136394976Y-106045000D01*
X136461500Y-105924048D01*
X136528024Y-105863571D01*
X136661071Y-105803095D01*
X136927167Y-105742619D01*
X137259786Y-105742619D01*
X137525881Y-105803095D01*
X137658929Y-105863571D01*
X137725452Y-105924048D01*
X137791976Y-106045000D01*
X137791976Y-106165952D01*
X137725452Y-106286905D01*
X137658929Y-106347381D01*
X137525881Y-106407857D01*
X137259786Y-106468333D01*
X136927167Y-106468333D01*
X136661071Y-106407857D01*
X136528024Y-106347381D01*
X136461500Y-106286905D01*
X136394976Y-106165952D01*
X136313333Y-114296976D02*
X135587619Y-114296976D01*
X135950476Y-114296976D02*
X135950476Y-112899976D01*
X135829524Y-113099548D01*
X135708571Y-113232595D01*
X135587619Y-113299119D01*
X137099524Y-112899976D02*
X137220476Y-112899976D01*
X137341428Y-112966500D01*
X137401905Y-113033024D01*
X137462381Y-113166071D01*
X137522857Y-113432167D01*
X137522857Y-113764786D01*
X137462381Y-114030881D01*
X137401905Y-114163929D01*
X137341428Y-114230452D01*
X137220476Y-114296976D01*
X137099524Y-114296976D01*
X136978571Y-114230452D01*
X136918095Y-114163929D01*
X136857619Y-114030881D01*
X136797143Y-113764786D01*
X136797143Y-113432167D01*
X136857619Y-113166071D01*
X136918095Y-113033024D01*
X136978571Y-112966500D01*
X137099524Y-112899976D01*
X138309048Y-112899976D02*
X138430000Y-112899976D01*
X138550952Y-112966500D01*
X138611429Y-113033024D01*
X138671905Y-113166071D01*
X138732381Y-113432167D01*
X138732381Y-113764786D01*
X138671905Y-114030881D01*
X138611429Y-114163929D01*
X138550952Y-114230452D01*
X138430000Y-114296976D01*
X138309048Y-114296976D01*
X138188095Y-114230452D01*
X138127619Y-114163929D01*
X138067143Y-114030881D01*
X138006667Y-113764786D01*
X138006667Y-113432167D01*
X138067143Y-113166071D01*
X138127619Y-113033024D01*
X138188095Y-112966500D01*
X138309048Y-112899976D01*
X139276667Y-114296976D02*
X139276667Y-112899976D01*
X140002381Y-114296976D02*
X139458096Y-113498690D01*
X140002381Y-112899976D02*
X139276667Y-113698262D01*
X132711976Y-118956667D02*
X132711976Y-119682381D01*
X132711976Y-119319524D02*
X131314976Y-119319524D01*
X131514548Y-119440476D01*
X131647595Y-119561429D01*
X131714119Y-119682381D01*
X131314976Y-118170476D02*
X131314976Y-118049524D01*
X131381500Y-117928572D01*
X131448024Y-117868095D01*
X131581071Y-117807619D01*
X131847167Y-117747143D01*
X132179786Y-117747143D01*
X132445881Y-117807619D01*
X132578929Y-117868095D01*
X132645452Y-117928572D01*
X132711976Y-118049524D01*
X132711976Y-118170476D01*
X132645452Y-118291429D01*
X132578929Y-118351905D01*
X132445881Y-118412381D01*
X132179786Y-118472857D01*
X131847167Y-118472857D01*
X131581071Y-118412381D01*
X131448024Y-118351905D01*
X131381500Y-118291429D01*
X131314976Y-118170476D01*
X131314976Y-116960952D02*
X131314976Y-116840000D01*
X131381500Y-116719048D01*
X131448024Y-116658571D01*
X131581071Y-116598095D01*
X131847167Y-116537619D01*
X132179786Y-116537619D01*
X132445881Y-116598095D01*
X132578929Y-116658571D01*
X132645452Y-116719048D01*
X132711976Y-116840000D01*
X132711976Y-116960952D01*
X132645452Y-117081905D01*
X132578929Y-117142381D01*
X132445881Y-117202857D01*
X132179786Y-117263333D01*
X131847167Y-117263333D01*
X131581071Y-117202857D01*
X131448024Y-117142381D01*
X131381500Y-117081905D01*
X131314976Y-116960952D01*
X132711976Y-115993333D02*
X131314976Y-115993333D01*
X132711976Y-115267619D02*
X131913690Y-115811904D01*
X131314976Y-115267619D02*
X132113262Y-115993333D01*
D18*
X139331095Y-84092143D02*
X139476238Y-84164714D01*
X139524619Y-84237286D01*
X139573000Y-84382429D01*
X139573000Y-84600143D01*
X139524619Y-84745286D01*
X139476238Y-84817857D01*
X139379476Y-84890429D01*
X138992429Y-84890429D01*
X138992429Y-83366429D01*
X139331095Y-83366429D01*
X139427857Y-83439000D01*
X139476238Y-83511571D01*
X139524619Y-83656714D01*
X139524619Y-83801857D01*
X139476238Y-83947000D01*
X139427857Y-84019571D01*
X139331095Y-84092143D01*
X138992429Y-84092143D01*
X141314714Y-84890429D02*
X140734143Y-84890429D01*
X141024429Y-84890429D02*
X141024429Y-83366429D01*
X140927667Y-83584143D01*
X140830905Y-83729286D01*
X140734143Y-83801857D01*
X141943667Y-83366429D02*
X142040428Y-83366429D01*
X142137190Y-83439000D01*
X142185571Y-83511571D01*
X142233952Y-83656714D01*
X142282333Y-83947000D01*
X142282333Y-84309857D01*
X142233952Y-84600143D01*
X142185571Y-84745286D01*
X142137190Y-84817857D01*
X142040428Y-84890429D01*
X141943667Y-84890429D01*
X141846905Y-84817857D01*
X141798524Y-84745286D01*
X141750143Y-84600143D01*
X141701762Y-84309857D01*
X141701762Y-83947000D01*
X141750143Y-83656714D01*
X141798524Y-83511571D01*
X141846905Y-83439000D01*
X141943667Y-83366429D01*
X142911286Y-83366429D02*
X143008047Y-83366429D01*
X143104809Y-83439000D01*
X143153190Y-83511571D01*
X143201571Y-83656714D01*
X143249952Y-83947000D01*
X143249952Y-84309857D01*
X143201571Y-84600143D01*
X143153190Y-84745286D01*
X143104809Y-84817857D01*
X143008047Y-84890429D01*
X142911286Y-84890429D01*
X142814524Y-84817857D01*
X142766143Y-84745286D01*
X142717762Y-84600143D01*
X142669381Y-84309857D01*
X142669381Y-83947000D01*
X142717762Y-83656714D01*
X142766143Y-83511571D01*
X142814524Y-83439000D01*
X142911286Y-83366429D01*
X143685381Y-84890429D02*
X143685381Y-83366429D01*
X144265952Y-84890429D02*
X143830524Y-84019571D01*
X144265952Y-83366429D02*
X143685381Y-84237286D01*
D13*
D18*
X128536095Y-84092143D02*
X128681238Y-84164714D01*
X128729619Y-84237286D01*
X128778000Y-84382429D01*
X128778000Y-84600143D01*
X128729619Y-84745286D01*
X128681238Y-84817857D01*
X128584476Y-84890429D01*
X128197429Y-84890429D01*
X128197429Y-83366429D01*
X128536095Y-83366429D01*
X128632857Y-83439000D01*
X128681238Y-83511571D01*
X128729619Y-83656714D01*
X128729619Y-83801857D01*
X128681238Y-83947000D01*
X128632857Y-84019571D01*
X128536095Y-84092143D01*
X128197429Y-84092143D01*
X130519714Y-84890429D02*
X129939143Y-84890429D01*
X130229429Y-84890429D02*
X130229429Y-83366429D01*
X130132667Y-83584143D01*
X130035905Y-83729286D01*
X129939143Y-83801857D01*
X131148667Y-83366429D02*
X131245428Y-83366429D01*
X131342190Y-83439000D01*
X131390571Y-83511571D01*
X131438952Y-83656714D01*
X131487333Y-83947000D01*
X131487333Y-84309857D01*
X131438952Y-84600143D01*
X131390571Y-84745286D01*
X131342190Y-84817857D01*
X131245428Y-84890429D01*
X131148667Y-84890429D01*
X131051905Y-84817857D01*
X131003524Y-84745286D01*
X130955143Y-84600143D01*
X130906762Y-84309857D01*
X130906762Y-83947000D01*
X130955143Y-83656714D01*
X131003524Y-83511571D01*
X131051905Y-83439000D01*
X131148667Y-83366429D01*
X132116286Y-83366429D02*
X132213047Y-83366429D01*
X132309809Y-83439000D01*
X132358190Y-83511571D01*
X132406571Y-83656714D01*
X132454952Y-83947000D01*
X132454952Y-84309857D01*
X132406571Y-84600143D01*
X132358190Y-84745286D01*
X132309809Y-84817857D01*
X132213047Y-84890429D01*
X132116286Y-84890429D01*
X132019524Y-84817857D01*
X131971143Y-84745286D01*
X131922762Y-84600143D01*
X131874381Y-84309857D01*
X131874381Y-83947000D01*
X131922762Y-83656714D01*
X131971143Y-83511571D01*
X132019524Y-83439000D01*
X132116286Y-83366429D01*
X132890381Y-84890429D02*
X132890381Y-83366429D01*
X133470952Y-84890429D02*
X133035524Y-84019571D01*
X133470952Y-83366429D02*
X132890381Y-84237286D01*
D13*
D18*
X117106095Y-84092143D02*
X117251238Y-84164714D01*
X117299619Y-84237286D01*
X117348000Y-84382429D01*
X117348000Y-84600143D01*
X117299619Y-84745286D01*
X117251238Y-84817857D01*
X117154476Y-84890429D01*
X116767429Y-84890429D01*
X116767429Y-83366429D01*
X117106095Y-83366429D01*
X117202857Y-83439000D01*
X117251238Y-83511571D01*
X117299619Y-83656714D01*
X117299619Y-83801857D01*
X117251238Y-83947000D01*
X117202857Y-84019571D01*
X117106095Y-84092143D01*
X116767429Y-84092143D01*
X119089714Y-84890429D02*
X118509143Y-84890429D01*
X118799429Y-84890429D02*
X118799429Y-83366429D01*
X118702667Y-83584143D01*
X118605905Y-83729286D01*
X118509143Y-83801857D01*
X119718667Y-83366429D02*
X119815428Y-83366429D01*
X119912190Y-83439000D01*
X119960571Y-83511571D01*
X120008952Y-83656714D01*
X120057333Y-83947000D01*
X120057333Y-84309857D01*
X120008952Y-84600143D01*
X119960571Y-84745286D01*
X119912190Y-84817857D01*
X119815428Y-84890429D01*
X119718667Y-84890429D01*
X119621905Y-84817857D01*
X119573524Y-84745286D01*
X119525143Y-84600143D01*
X119476762Y-84309857D01*
X119476762Y-83947000D01*
X119525143Y-83656714D01*
X119573524Y-83511571D01*
X119621905Y-83439000D01*
X119718667Y-83366429D01*
X120686286Y-83366429D02*
X120783047Y-83366429D01*
X120879809Y-83439000D01*
X120928190Y-83511571D01*
X120976571Y-83656714D01*
X121024952Y-83947000D01*
X121024952Y-84309857D01*
X120976571Y-84600143D01*
X120928190Y-84745286D01*
X120879809Y-84817857D01*
X120783047Y-84890429D01*
X120686286Y-84890429D01*
X120589524Y-84817857D01*
X120541143Y-84745286D01*
X120492762Y-84600143D01*
X120444381Y-84309857D01*
X120444381Y-83947000D01*
X120492762Y-83656714D01*
X120541143Y-83511571D01*
X120589524Y-83439000D01*
X120686286Y-83366429D01*
X121460381Y-84890429D02*
X121460381Y-83366429D01*
X122040952Y-84890429D02*
X121605524Y-84019571D01*
X122040952Y-83366429D02*
X121460381Y-84237286D01*
D13*
D18*
X127931333Y-108197952D02*
X127931333Y-107617381D01*
X129709333Y-107907666D02*
X127931333Y-107907666D01*
X129709333Y-106794905D02*
X129709333Y-107278714D01*
X127931333Y-107278714D01*
X127931333Y-106262714D02*
X127931333Y-106165953D01*
X128016000Y-106069191D01*
X128100667Y-106020810D01*
X128270000Y-105972429D01*
X128608667Y-105924048D01*
X129032000Y-105924048D01*
X129370667Y-105972429D01*
X129540000Y-106020810D01*
X129624667Y-106069191D01*
X129709333Y-106165953D01*
X129709333Y-106262714D01*
X129624667Y-106359476D01*
X129540000Y-106407857D01*
X129370667Y-106456238D01*
X129032000Y-106504619D01*
X128608667Y-106504619D01*
X128270000Y-106456238D01*
X128100667Y-106407857D01*
X128016000Y-106359476D01*
X127931333Y-106262714D01*
X127931333Y-105585381D02*
X127931333Y-104908048D01*
X129709333Y-105343476D01*
X128100667Y-104569381D02*
X128016000Y-104521000D01*
X127931333Y-104424238D01*
X127931333Y-104182334D01*
X128016000Y-104085572D01*
X128100667Y-104037191D01*
X128270000Y-103988810D01*
X128439333Y-103988810D01*
X128693333Y-104037191D01*
X129709333Y-104617762D01*
X129709333Y-103988810D01*
D13*
D16*
X129933095Y-96937286D02*
X129933095Y-97614619D01*
X129691191Y-96550238D02*
X129449286Y-97275952D01*
X130078238Y-97275952D01*
X130368524Y-96598619D02*
X131045857Y-96598619D01*
X130610429Y-97614619D01*
X131432905Y-96937286D02*
X131432905Y-97953286D01*
X131432905Y-96985667D02*
X131529667Y-96937286D01*
X131723190Y-96937286D01*
X131819952Y-96985667D01*
X131868333Y-97034048D01*
X131916714Y-97130810D01*
X131916714Y-97421095D01*
X131868333Y-97517857D01*
X131819952Y-97566238D01*
X131723190Y-97614619D01*
X131529667Y-97614619D01*
X131432905Y-97566238D01*
%LPC*%
D19*
X120015000Y-120015000D03*
X120015000Y-114935000D03*
D20*
X119888000Y-104140000D03*
D19*
X119888000Y-100330000D03*
X128270000Y-90170000D03*
X133350000Y-90170000D03*
X128270000Y-93345000D03*
X133350000Y-93345000D03*
X139065000Y-86360000D03*
X144145000Y-86360000D03*
X116840000Y-86360000D03*
X121920000Y-86360000D03*
D20*
X140335000Y-106680000D03*
D19*
X144145000Y-106680000D03*
D20*
X128905000Y-118745000D03*
D19*
X125095000Y-118745000D03*
D20*
X137160000Y-116840000D03*
D19*
X137160000Y-120650000D03*
D20*
X116840000Y-109220000D03*
D19*
X116840000Y-106680000D03*
D20*
X145415000Y-115570000D03*
D19*
X145415000Y-113030000D03*
D20*
X142240000Y-121285000D03*
D19*
X142240000Y-118745000D03*
X116840000Y-120015000D03*
X116840000Y-112395000D03*
X130175000Y-113665000D03*
X122555000Y-113665000D03*
X124460000Y-90170000D03*
X116840000Y-90170000D03*
X124460000Y-93345000D03*
X116840000Y-93345000D03*
X116840000Y-97155000D03*
X124460000Y-97155000D03*
X133985000Y-86360000D03*
X126365000Y-86360000D03*
X144145000Y-90170000D03*
X136525000Y-90170000D03*
X144145000Y-93345000D03*
X136525000Y-93345000D03*
X144145000Y-97155000D03*
X136525000Y-97155000D03*
X137160000Y-111125000D03*
X137160000Y-103505000D03*
X133985000Y-113665000D03*
X141605000Y-113665000D03*
X132080000Y-121285000D03*
X132080000Y-113665000D03*
D20*
X144145000Y-81915000D03*
D19*
X141605000Y-81915000D03*
X139065000Y-81915000D03*
D20*
X133350000Y-81915000D03*
D19*
X130810000Y-81915000D03*
X128270000Y-81915000D03*
D20*
X121920000Y-81915000D03*
D19*
X119380000Y-81915000D03*
X116840000Y-81915000D03*
D21*
X125095000Y-102235000D03*
D22*
X125095000Y-104775000D03*
X125095000Y-107315000D03*
X125095000Y-109855000D03*
X132715000Y-109855000D03*
X132715000Y-107315000D03*
X132715000Y-104775000D03*
X132715000Y-102235000D03*
D19*
X128143000Y-97155000D03*
X133223000Y-97155000D03*
M02*
